solid OpenSCAD_Model
  facet normal -1 0 0
    outer loop
      vertex 0 2.45 0
      vertex 0 2.45 1.75
      vertex 0 32.5 0
    endloop
  endfacet
  facet normal -1 0 0
    outer loop
      vertex 0 32.5 0
      vertex 0 2.45 1.75
      vertex 0 32.5 1.75
    endloop
  endfacet
  facet normal -1.22465e-16 -1 0
    outer loop
      vertex 0.00631646 2.45 0
      vertex 0.00631646 2.45 1.75
      vertex 0 2.45 1.75
    endloop
  endfacet
  facet normal -1.22465e-16 -1 0
    outer loop
      vertex 0 2.45 0
      vertex 0.00631646 2.45 0
      vertex 0 2.45 1.75
    endloop
  endfacet
  facet normal 0 0 -1
    outer loop
      vertex 0 2.45 0
      vertex 0 32.5 0
      vertex 0.00631646 2.45 0
    endloop
  endfacet
  facet normal 0 0 -1
    outer loop
      vertex 0.00631646 2.45 0
      vertex 0 32.5 0
      vertex 0.0148092 32.5 0
    endloop
  endfacet
  facet normal 0 0 -1
    outer loop
      vertex 0.0148092 32.5 0
      vertex 0.004933 32.657 0
      vertex 0.122359 33.2725 0
    endloop
  endfacet
  facet normal 0 0 -1
    outer loop
      vertex 0.0148092 32.5 0
      vertex 0.122359 33.2725 0
      vertex 0.00631646 2.45 0
    endloop
  endfacet
  facet normal 0 0 -1
    outer loop
      vertex 0.00631646 2.45 0
      vertex 0.122359 33.2725 0
      vertex 0.38918 33.8396 0
    endloop
  endfacet
  facet normal 0 0 -1
    outer loop
      vertex 0.00631646 2.45 0
      vertex 0.38918 33.8396 0
      vertex 0.788632 34.3224 0
    endloop
  endfacet
  facet normal 0 0 -1
    outer loop
      vertex 0.00631646 2.45 0
      vertex 0.788632 34.3224 0
      vertex 1.29562 34.6908 0
    endloop
  endfacet
  facet normal 0 0 -1
    outer loop
      vertex 0.00631646 2.45 0
      vertex 1.29562 34.6908 0
      vertex 1.87828 34.9215 0
    endloop
  endfacet
  facet normal 0 0 -1
    outer loop
      vertex 1.75248 31.4 0
      vertex 1.87828 34.9215 0
      vertex 2.45 34.9937 0
    endloop
  endfacet
  facet normal 0 0 -1
    outer loop
      vertex 2.45 34.9937 0
      vertex 2.45 35 0
      vertex 87.5 35 0
    endloop
  endfacet
  facet normal 0 0 -1
    outer loop
      vertex 85.4762 33 0
      vertex 88.8396 34.6108 0
      vertex 89.3224 34.2114 0
    endloop
  endfacet
  facet normal 0 0 -1
    outer loop
      vertex 87.3238 33 0
      vertex 89.3224 34.2114 0
      vertex 89.6908 33.7044 0
    endloop
  endfacet
  facet normal 0 0 -1
    outer loop
      vertex 89.9852 2.5 0
      vertex 90 32.55 0
      vertex 90 2.5 0
    endloop
  endfacet
  facet normal 0 0 -1
    outer loop
      vertex 88.2475 3.6 0
      vertex 90 32.55 0
      vertex 89.9852 2.5 0
    endloop
  endfacet
  facet normal 0 0 -1
    outer loop
      vertex 2.34302 0.004933 0
      vertex 0.00631646 2.45 0
      vertex 2.5 0.0148092 0
    endloop
  endfacet
  facet normal 0 0 -1
    outer loop
      vertex 2.67624 29.8 0
      vertex 2.67624 5.2 0
      vertex 1.75248 3.6 0
    endloop
  endfacet
  facet normal 0 0 -1
    outer loop
      vertex 4.52376 29.8 0
      vertex 4.52376 5.2 0
      vertex 2.67624 29.8 0
    endloop
  endfacet
  facet normal 0 0 -1
    outer loop
      vertex 87.55 0 0
      vertex 2.5 0 0
      vertex 2.5 0.0148092 0
    endloop
  endfacet
  facet normal 0 0 -1
    outer loop
      vertex 4.52376 5.2 0
      vertex 87.5 35 0
      vertex 87.5 34.9852 0
    endloop
  endfacet
  facet normal 0 0 -1
    outer loop
      vertex 4.52376 5.2 0
      vertex 87.5 34.9852 0
      vertex 87.657 34.9951 0
    endloop
  endfacet
  facet normal 0 0 -1
    outer loop
      vertex 4.52376 5.2 0
      vertex 87.657 34.9951 0
      vertex 88.2725 34.8776 0
    endloop
  endfacet
  facet normal 0 0 -1
    outer loop
      vertex 4.52376 5.2 0
      vertex 88.2725 34.8776 0
      vertex 88.8396 34.6108 0
    endloop
  endfacet
  facet normal 0 0 -1
    outer loop
      vertex 4.52376 5.2 0
      vertex 88.8396 34.6108 0
      vertex 85.4762 33 0
    endloop
  endfacet
  facet normal 0 0 -1
    outer loop
      vertex 1.75248 31.4 0
      vertex 2.45 34.9937 0
      vertex 2.67624 33 0
    endloop
  endfacet
  facet normal 0 0 -1
    outer loop
      vertex 2.67624 29.8 0
      vertex 0.00631646 2.45 0
      vertex 1.75248 31.4 0
    endloop
  endfacet
  facet normal 0 0 -1
    outer loop
      vertex 87.55 0 0
      vertex 2.5 0.0148092 0
      vertex 2.67624 2 0
    endloop
  endfacet
  facet normal 0 0 -1
    outer loop
      vertex 87.55 0 0
      vertex 2.67624 2 0
      vertex 4.52376 2 0
    endloop
  endfacet
  facet normal 0 0 -1
    outer loop
      vertex 87.3238 33 0
      vertex 89.9215 33.1217 0
      vertex 89.9937 32.55 0
    endloop
  endfacet
  facet normal 0 0 -1
    outer loop
      vertex 89.9937 32.55 0
      vertex 90 32.55 0
      vertex 88.2475 31.4 0
    endloop
  endfacet
  facet normal 0 0 -1
    outer loop
      vertex 4.52376 29.8 0
      vertex 87.5 35 0
      vertex 4.52376 5.2 0
    endloop
  endfacet
  facet normal 0 0 -1
    outer loop
      vertex 2.67624 29.8 0
      vertex 4.52376 5.2 0
      vertex 2.67624 5.2 0
    endloop
  endfacet
  facet normal 0 0 -1
    outer loop
      vertex 0.00631646 2.45 0
      vertex 1.87828 34.9215 0
      vertex 1.75248 31.4 0
    endloop
  endfacet
  facet normal 0 0 -1
    outer loop
      vertex 2.67624 29.8 0
      vertex 1.75248 3.6 0
      vertex 0.00631646 2.45 0
    endloop
  endfacet
  facet normal 0 0 -1
    outer loop
      vertex 5.44752 31.4 0
      vertex 87.5 35 0
      vertex 4.52376 29.8 0
    endloop
  endfacet
  facet normal 0 0 -1
    outer loop
      vertex 2.67624 33 0
      vertex 2.45 34.9937 0
      vertex 4.52376 33 0
    endloop
  endfacet
  facet normal 0 0 -1
    outer loop
      vertex 4.52376 33 0
      vertex 87.5 35 0
      vertex 5.44752 31.4 0
    endloop
  endfacet
  facet normal 0 0 -1
    outer loop
      vertex 85.4762 33 0
      vertex 89.3224 34.2114 0
      vertex 87.3238 33 0
    endloop
  endfacet
  facet normal 0 0 -1
    outer loop
      vertex 2.45 34.9937 0
      vertex 87.5 35 0
      vertex 4.52376 33 0
    endloop
  endfacet
  facet normal 0 0 -1
    outer loop
      vertex 85.4762 2 0
      vertex 5.44752 3.6 0
      vertex 84.5525 3.6 0
    endloop
  endfacet
  facet normal 0 0 -1
    outer loop
      vertex 87.3238 29.8 0
      vertex 90 32.55 0
      vertex 84.5525 3.6 0
    endloop
  endfacet
  facet normal 0 0 -1
    outer loop
      vertex 87.3238 2 0
      vertex 89.8776 1.72746 0
      vertex 85.4762 2 0
    endloop
  endfacet
  facet normal 0 0 -1
    outer loop
      vertex 89.9951 2.34302 0
      vertex 89.8776 1.72746 0
      vertex 87.3238 2 0
    endloop
  endfacet
  facet normal 0 0 -1
    outer loop
      vertex 87.3238 5.2 0
      vertex 90 32.55 0
      vertex 88.2475 3.6 0
    endloop
  endfacet
  facet normal 0 0 -1
    outer loop
      vertex 84.5525 31.4 0
      vertex 4.52376 5.2 0
      vertex 85.4762 33 0
    endloop
  endfacet
  facet normal 0 0 -1
    outer loop
      vertex 85.4762 5.2 0
      vertex 90 32.55 0
      vertex 87.3238 5.2 0
    endloop
  endfacet
  facet normal 0 0 -1
    outer loop
      vertex 84.5525 3.6 0
      vertex 90 32.55 0
      vertex 85.4762 5.2 0
    endloop
  endfacet
  facet normal 0 0 -1
    outer loop
      vertex 87.3238 33 0
      vertex 89.6908 33.7044 0
      vertex 89.9215 33.1217 0
    endloop
  endfacet
  facet normal 0 0 -1
    outer loop
      vertex 5.44752 3.6 0
      vertex 85.4762 29.8 0
      vertex 84.5525 3.6 0
    endloop
  endfacet
  facet normal 0 0 -1
    outer loop
      vertex 88.2475 31.4 0
      vertex 90 32.55 0
      vertex 87.3238 29.8 0
    endloop
  endfacet
  facet normal 0 0 -1
    outer loop
      vertex 85.4762 29.8 0
      vertex 87.3238 29.8 0
      vertex 84.5525 3.6 0
    endloop
  endfacet
  facet normal 0 0 -1
    outer loop
      vertex 5.44752 3.6 0
      vertex 87.55 0 0
      vertex 4.52376 2 0
    endloop
  endfacet
  facet normal 0 0 -1
    outer loop
      vertex 5.44752 3.6 0
      vertex 87.55 0.00631646 0
      vertex 87.55 0 0
    endloop
  endfacet
  facet normal 0 0 -1
    outer loop
      vertex 5.44752 3.6 0
      vertex 88.1217 0.078542 0
      vertex 87.55 0.00631646 0
    endloop
  endfacet
  facet normal 0 0 -1
    outer loop
      vertex 5.44752 3.6 0
      vertex 88.7044 0.309233 0
      vertex 88.1217 0.078542 0
    endloop
  endfacet
  facet normal 0 0 -1
    outer loop
      vertex 5.44752 3.6 0
      vertex 89.2114 0.677578 0
      vertex 88.7044 0.309233 0
    endloop
  endfacet
  facet normal 0 0 -1
    outer loop
      vertex 5.44752 3.6 0
      vertex 89.6108 1.16043 0
      vertex 89.2114 0.677578 0
    endloop
  endfacet
  facet normal 0 0 -1
    outer loop
      vertex 5.44752 3.6 0
      vertex 89.8776 1.72746 0
      vertex 89.6108 1.16043 0
    endloop
  endfacet
  facet normal 0 0 -1
    outer loop
      vertex 5.44752 3.6 0
      vertex 85.4762 2 0
      vertex 89.8776 1.72746 0
    endloop
  endfacet
  facet normal 0 0 -1
    outer loop
      vertex 88.2475 3.6 0
      vertex 89.9852 2.5 0
      vertex 89.9951 2.34302 0
    endloop
  endfacet
  facet normal 0 0 -1
    outer loop
      vertex 88.2475 3.6 0
      vertex 89.9951 2.34302 0
      vertex 87.3238 2 0
    endloop
  endfacet
  facet normal 0 0 -1
    outer loop
      vertex 0.00631646 2.45 0
      vertex 2.67624 2 0
      vertex 2.5 0.0148092 0
    endloop
  endfacet
  facet normal 0 0 -1
    outer loop
      vertex 2.67624 2 0
      vertex 0.00631646 2.45 0
      vertex 1.75248 3.6 0
    endloop
  endfacet
  facet normal 0 0 -1
    outer loop
      vertex 0.00631646 2.45 0
      vertex 2.34302 0.004933 0
      vertex 1.72746 0.122359 0
    endloop
  endfacet
  facet normal 0 0 -1
    outer loop
      vertex 0.00631646 2.45 0
      vertex 1.72746 0.122359 0
      vertex 1.16043 0.38918 0
    endloop
  endfacet
  facet normal 0 0 -1
    outer loop
      vertex 0.00631646 2.45 0
      vertex 1.16043 0.38918 0
      vertex 0.677578 0.788632 0
    endloop
  endfacet
  facet normal 0 0 -1
    outer loop
      vertex 0.00631646 2.45 0
      vertex 0.677578 0.788632 0
      vertex 0.309233 1.29562 0
    endloop
  endfacet
  facet normal 0 0 -1
    outer loop
      vertex 0.00631646 2.45 0
      vertex 0.309233 1.29562 0
      vertex 0.078542 1.87828 0
    endloop
  endfacet
  facet normal 0 0 -1
    outer loop
      vertex 85.4762 29.8 0
      vertex 4.52376 5.2 0
      vertex 84.5525 31.4 0
    endloop
  endfacet
  facet normal 0 0 -1
    outer loop
      vertex 85.4762 29.8 0
      vertex 5.44752 3.6 0
      vertex 4.52376 5.2 0
    endloop
  endfacet
  facet normal 0 0 -1
    outer loop
      vertex 87.3238 33 0
      vertex 89.9937 32.55 0
      vertex 88.2475 31.4 0
    endloop
  endfacet
  facet normal 6.12323e-17 1 0
    outer loop
      vertex 0.0148092 32.5 1.75
      vertex 0.0148092 32.5 0
      vertex 0 32.5 1.75
    endloop
  endfacet
  facet normal 6.12323e-17 1 0
    outer loop
      vertex 0 32.5 1.75
      vertex 0.0148092 32.5 0
      vertex 0 32.5 0
    endloop
  endfacet
  facet normal 0 0 1
    outer loop
      vertex 0 32.5 1.75
      vertex 0 2.45 1.75
      vertex 0.00631646 2.45 1.75
    endloop
  endfacet
  facet normal 0 0 1
    outer loop
      vertex 0.078542 1.87828 1.75
      vertex 0 32.5 1.75
      vertex 0.00631646 2.45 1.75
    endloop
  endfacet
  facet normal 0 0 1
    outer loop
      vertex 0.078542 1.87828 1.75
      vertex 0.309233 1.29562 1.75
      vertex 0 32.5 1.75
    endloop
  endfacet
  facet normal 0 0 1
    outer loop
      vertex 0.309233 1.29562 1.75
      vertex 0.677578 0.788632 1.75
      vertex 0 32.5 1.75
    endloop
  endfacet
  facet normal 0 0 1
    outer loop
      vertex 0.677578 0.788632 1.75
      vertex 1.16043 0.38918 1.75
      vertex 0 32.5 1.75
    endloop
  endfacet
  facet normal 0 0 1
    outer loop
      vertex 1.16043 0.38918 1.75
      vertex 1.72746 0.122359 1.75
      vertex 0 32.5 1.75
    endloop
  endfacet
  facet normal 0 0 1
    outer loop
      vertex 85.4762 2 1.75
      vertex 82.6208 3.6 1.75
      vertex 82.6 3.6 1.75
    endloop
  endfacet
  facet normal 0 0 1
    outer loop
      vertex 2.5 0 1.75
      vertex 87.55 0 1.75
      vertex 2.5 0.0148092 1.75
    endloop
  endfacet
  facet normal 0 0 1
    outer loop
      vertex 2.67624 2 1.75
      vertex 1.75248 3.6 1.75
      vertex 2.34302 0.004933 1.75
    endloop
  endfacet
  facet normal 0 0 1
    outer loop
      vertex 1.75248 3.6 1.75
      vertex 1.95 7.4 1.75
      vertex 0 32.5 1.75
    endloop
  endfacet
  facet normal 0 0 1
    outer loop
      vertex 4.52376 5.2 1.75
      vertex 7.4 3.6 1.75
      vertex 7.31696 4.39006 1.75
    endloop
  endfacet
  facet normal 0 0 1
    outer loop
      vertex 88.2725 34.8776 1.75
      vertex 87.657 34.9951 1.75
      vertex 87.5 34.9852 1.75
    endloop
  endfacet
  facet normal 0 0 1
    outer loop
      vertex 0.004933 32.657 1.75
      vertex 0.38918 33.8396 1.75
      vertex 0.122359 33.2725 1.75
    endloop
  endfacet
  facet normal 0 0 1
    outer loop
      vertex 88.2475 3.6 1.75
      vertex 89.6108 1.16043 1.75
      vertex 89.8776 1.72746 1.75
    endloop
  endfacet
  facet normal 0 0 1
    outer loop
      vertex 87.5 35 1.75
      vertex 2.45 35 1.75
      vertex 2.45 34.9937 1.75
    endloop
  endfacet
  facet normal 0 0 1
    outer loop
      vertex 82.6 3.6 1.75
      vertex 88.1217 0.078542 1.75
      vertex 85.4762 2 1.75
    endloop
  endfacet
  facet normal 0 0 1
    outer loop
      vertex 84.5525 3.6 1.75
      vertex 83.1091 5.5 1.75
      vertex 82.786 4.77426 1.75
    endloop
  endfacet
  facet normal 0 0 1
    outer loop
      vertex 85.4762 2 1.75
      vertex 82.6208 3.99721 1.75
      vertex 82.6208 3.6 1.75
    endloop
  endfacet
  facet normal 0 0 1
    outer loop
      vertex 85.4762 2 1.75
      vertex 88.1217 0.078542 1.75
      vertex 88.7044 0.309233 1.75
    endloop
  endfacet
  facet normal 0 0 1
    outer loop
      vertex 82.6 1.95 1.75
      vertex 7.4 1.95 1.75
      vertex 87.55 0 1.75
    endloop
  endfacet
  facet normal 0 0 1
    outer loop
      vertex 87.3238 2 1.75
      vertex 85.4762 2 1.75
      vertex 89.2114 0.677578 1.75
    endloop
  endfacet
  facet normal 0 0 1
    outer loop
      vertex 2.5 0.0148092 1.75
      vertex 87.55 0 1.75
      vertex 2.67624 2 1.75
    endloop
  endfacet
  facet normal 0 0 1
    outer loop
      vertex 1.72746 0.122359 1.75
      vertex 1.75248 3.6 1.75
      vertex 0 32.5 1.75
    endloop
  endfacet
  facet normal 0 0 1
    outer loop
      vertex 1.72746 0.122359 1.75
      vertex 2.34302 0.004933 1.75
      vertex 1.75248 3.6 1.75
    endloop
  endfacet
  facet normal 0 0 1
    outer loop
      vertex 7.4 33.05 1.75
      vertex 88.8396 34.6108 1.75
      vertex 88.2725 34.8776 1.75
    endloop
  endfacet
  facet normal 0 0 1
    outer loop
      vertex 1.95 27.6 1.75
      vertex 3.6 27.6 1.75
      vertex 2.67624 29.8 1.75
    endloop
  endfacet
  facet normal 0 0 1
    outer loop
      vertex 7.4 33.05 1.75
      vertex 89.3224 34.2114 1.75
      vertex 88.8396 34.6108 1.75
    endloop
  endfacet
  facet normal 0 0 1
    outer loop
      vertex 2.67624 2 1.75
      vertex 87.55 0 1.75
      vertex 4.52376 2 1.75
    endloop
  endfacet
  facet normal 0 0 1
    outer loop
      vertex 1.95 27.6 1.75
      vertex 2.67624 29.8 1.75
      vertex 0 32.5 1.75
    endloop
  endfacet
  facet normal 0 0 1
    outer loop
      vertex 6.42395 28.8573 1.75
      vertex 6.8909 29.5 1.75
      vertex 4.52376 29.8 1.75
    endloop
  endfacet
  facet normal 0 0 1
    outer loop
      vertex 2.67624 29.8 1.75
      vertex 1.75248 31.4 1.75
      vertex 0 32.5 1.75
    endloop
  endfacet
  facet normal 0 0 1
    outer loop
      vertex 3.6 7.4 1.75
      vertex 2.67624 5.2 1.75
      vertex 3.6 7.37918 1.75
    endloop
  endfacet
  facet normal 0 0 1
    outer loop
      vertex 82.6 31.4 1.75
      vertex 82.683 30.6099 1.75
      vertex 82.9285 29.8544 1.75
    endloop
  endfacet
  facet normal 0 0 1
    outer loop
      vertex 87.5 35 1.75
      vertex 2.45 34.9937 1.75
      vertex 2.67624 33 1.75
    endloop
  endfacet
  facet normal 0 0 1
    outer loop
      vertex 87.5 35 1.75
      vertex 2.67624 33 1.75
      vertex 4.52376 33 1.75
    endloop
  endfacet
  facet normal 0 0 1
    outer loop
      vertex 7.21401 30.2257 1.75
      vertex 7.37918 31.0028 1.75
      vertex 5.44752 31.4 1.75
    endloop
  endfacet
  facet normal 0 0 1
    outer loop
      vertex 1.75248 3.6 1.75
      vertex 2.67624 5.2 1.75
      vertex 1.95 7.4 1.75
    endloop
  endfacet
  facet normal 0 0 1
    outer loop
      vertex 4.52376 5.2 1.75
      vertex 5.44752 3.6 1.75
      vertex 7.4 3.6 1.75
    endloop
  endfacet
  facet normal 0 0 1
    outer loop
      vertex 84.5525 3.6 1.75
      vertex 83.576 6.1427 1.75
      vertex 83.1091 5.5 1.75
    endloop
  endfacet
  facet normal 0 0 1
    outer loop
      vertex 5.83358 28.3257 1.75
      vertex 6.42395 28.8573 1.75
      vertex 2.67624 29.8 1.75
    endloop
  endfacet
  facet normal 0 0 1
    outer loop
      vertex 84.5525 3.6 1.75
      vertex 85.4762 5.2 1.75
      vertex 83.576 6.1427 1.75
    endloop
  endfacet
  facet normal 0 0 1
    outer loop
      vertex 3.6 27.6 1.75
      vertex 4.39006 27.683 1.75
      vertex 2.67624 29.8 1.75
    endloop
  endfacet
  facet normal 0 0 1
    outer loop
      vertex 88.2475 3.6 1.75
      vertex 87.3238 2 1.75
      vertex 89.6108 1.16043 1.75
    endloop
  endfacet
  facet normal 0 0 1
    outer loop
      vertex 4.39006 27.683 1.75
      vertex 5.1456 27.9285 1.75
      vertex 2.67624 29.8 1.75
    endloop
  endfacet
  facet normal 0 0 1
    outer loop
      vertex 5.1456 27.9285 1.75
      vertex 5.83358 28.3257 1.75
      vertex 2.67624 29.8 1.75
    endloop
  endfacet
  facet normal 0 0 1
    outer loop
      vertex 2.67624 29.8 1.75
      vertex 6.42395 28.8573 1.75
      vertex 4.52376 29.8 1.75
    endloop
  endfacet
  facet normal 0 0 1
    outer loop
      vertex 87.3238 29.8 1.75
      vertex 85.4762 29.8 1.75
      vertex 83.8573 28.576 1.75
    endloop
  endfacet
  facet normal 0 0 1
    outer loop
      vertex 7.4 33.05 1.75
      vertex 89.9215 33.1217 1.75
      vertex 89.6908 33.7044 1.75
    endloop
  endfacet
  facet normal 0 0 1
    outer loop
      vertex 7.4 33.05 1.75
      vertex 89.6908 33.7044 1.75
      vertex 89.3224 34.2114 1.75
    endloop
  endfacet
  facet normal 0 0 1
    outer loop
      vertex 7.37918 31.0028 1.75
      vertex 7.37918 31.4 1.75
      vertex 5.44752 31.4 1.75
    endloop
  endfacet
  facet normal 0 0 1
    outer loop
      vertex 88.05 27.6 1.75
      vertex 88.05 7.4 1.75
      vertex 90 2.5 1.75
    endloop
  endfacet
  facet normal 0 0 1
    outer loop
      vertex 86.4 27.6 1.75
      vertex 88.05 27.6 1.75
      vertex 86.4 27.6208 1.75
    endloop
  endfacet
  facet normal 0 0 1
    outer loop
      vertex 87.5 35 1.75
      vertex 4.52376 33 1.75
      vertex 7.4 33.05 1.75
    endloop
  endfacet
  facet normal 0 0 1
    outer loop
      vertex 2.67624 2 1.75
      vertex 2.34302 0.004933 1.75
      vertex 2.5 0.0148092 1.75
    endloop
  endfacet
  facet normal 0 0 1
    outer loop
      vertex 85.4762 33 1.75
      vertex 89.9215 33.1217 1.75
      vertex 82.6 33.05 1.75
    endloop
  endfacet
  facet normal 0 0 1
    outer loop
      vertex 89.9937 32.55 1.75
      vertex 88.2475 31.4 1.75
      vertex 90 32.55 1.75
    endloop
  endfacet
  facet normal 0 0 1
    outer loop
      vertex 87.3238 33 1.75
      vertex 88.2475 31.4 1.75
      vertex 89.9937 32.55 1.75
    endloop
  endfacet
  facet normal 0 0 1
    outer loop
      vertex 85.4762 5.2 1.75
      vertex 84.8544 7.07147 1.75
      vertex 84.1664 6.67426 1.75
    endloop
  endfacet
  facet normal 0 0 1
    outer loop
      vertex 82.9285 29.8544 1.75
      vertex 83.3257 29.1664 1.75
      vertex 82.6 31.4 1.75
    endloop
  endfacet
  facet normal 0 0 1
    outer loop
      vertex 85.4762 5.2 1.75
      vertex 87.3238 5.2 1.75
      vertex 84.8544 7.07147 1.75
    endloop
  endfacet
  facet normal 0 0 1
    outer loop
      vertex 85.4762 29.8 1.75
      vertex 84.5525 31.4 1.75
      vertex 83.3257 29.1664 1.75
    endloop
  endfacet
  facet normal 0 0 1
    outer loop
      vertex 82.6 3.6 1.75
      vertex 82.6 1.95 1.75
      vertex 88.1217 0.078542 1.75
    endloop
  endfacet
  facet normal 0 0 1
    outer loop
      vertex 84.5525 31.4 1.75
      vertex 85.4762 33 1.75
      vertex 82.6 33.05 1.75
    endloop
  endfacet
  facet normal 0 0 1
    outer loop
      vertex 86.4 27.6208 1.75
      vertex 90 32.55 1.75
      vertex 86.0028 27.6208 1.75
    endloop
  endfacet
  facet normal 0 0 1
    outer loop
      vertex 88.05 27.6 1.75
      vertex 90 32.55 1.75
      vertex 86.4 27.6208 1.75
    endloop
  endfacet
  facet normal 0 0 1
    outer loop
      vertex 90 2.5 1.75
      vertex 90 32.55 1.75
      vertex 88.05 27.6 1.75
    endloop
  endfacet
  facet normal 0 0 1
    outer loop
      vertex 90 2.5 1.75
      vertex 88.05 7.4 1.75
      vertex 86.4 7.4 1.75
    endloop
  endfacet
  facet normal 0 0 1
    outer loop
      vertex 90 2.5 1.75
      vertex 86.4 7.4 1.75
      vertex 85.6099 7.31696 1.75
    endloop
  endfacet
  facet normal 0 0 1
    outer loop
      vertex 87.3238 5.2 1.75
      vertex 85.6099 7.31696 1.75
      vertex 84.8544 7.07147 1.75
    endloop
  endfacet
  facet normal 0 0 1
    outer loop
      vertex 85.4762 5.2 1.75
      vertex 84.1664 6.67426 1.75
      vertex 83.576 6.1427 1.75
    endloop
  endfacet
  facet normal 0 0 1
    outer loop
      vertex 82.786 4.77426 1.75
      vertex 82.6208 3.99721 1.75
      vertex 84.5525 3.6 1.75
    endloop
  endfacet
  facet normal 0 0 1
    outer loop
      vertex 88.2475 3.6 1.75
      vertex 89.8776 1.72746 1.75
      vertex 89.9951 2.34302 1.75
    endloop
  endfacet
  facet normal 0 0 1
    outer loop
      vertex 87.3238 29.8 1.75
      vertex 83.8573 28.576 1.75
      vertex 84.5 28.1091 1.75
    endloop
  endfacet
  facet normal 0 0 1
    outer loop
      vertex 87.55 0.00631646 1.75
      vertex 88.1217 0.078542 1.75
      vertex 82.6 1.95 1.75
    endloop
  endfacet
  facet normal 0 0 1
    outer loop
      vertex 4.52376 2 1.75
      vertex 7.4 1.95 1.75
      vertex 5.44752 3.6 1.75
    endloop
  endfacet
  facet normal 0 0 1
    outer loop
      vertex 4.52376 2 1.75
      vertex 87.55 0 1.75
      vertex 7.4 1.95 1.75
    endloop
  endfacet
  facet normal 0 0 1
    outer loop
      vertex 7.4 33.05 1.75
      vertex 87.5 34.9852 1.75
      vertex 87.5 35 1.75
    endloop
  endfacet
  facet normal 0 0 1
    outer loop
      vertex 7.4 33.05 1.75
      vertex 88.2725 34.8776 1.75
      vertex 87.5 34.9852 1.75
    endloop
  endfacet
  facet normal 0 0 1
    outer loop
      vertex 4.77426 7.21401 1.75
      vertex 3.99721 7.37918 1.75
      vertex 4.52376 5.2 1.75
    endloop
  endfacet
  facet normal 0 0 1
    outer loop
      vertex 85.4762 2 1.75
      vertex 84.5525 3.6 1.75
      vertex 82.6208 3.99721 1.75
    endloop
  endfacet
  facet normal 0 0 1
    outer loop
      vertex 4.52376 5.2 1.75
      vertex 7.07147 5.1456 1.75
      vertex 6.67426 5.83358 1.75
    endloop
  endfacet
  facet normal 0 0 1
    outer loop
      vertex 4.52376 5.2 1.75
      vertex 6.67426 5.83358 1.75
      vertex 6.1427 6.42395 1.75
    endloop
  endfacet
  facet normal 0 0 1
    outer loop
      vertex 4.52376 5.2 1.75
      vertex 6.1427 6.42395 1.75
      vertex 5.5 6.8909 1.75
    endloop
  endfacet
  facet normal 0 0 1
    outer loop
      vertex 87.3238 2 1.75
      vertex 89.2114 0.677578 1.75
      vertex 89.6108 1.16043 1.75
    endloop
  endfacet
  facet normal 0 0 1
    outer loop
      vertex 4.52376 5.2 1.75
      vertex 5.5 6.8909 1.75
      vertex 4.77426 7.21401 1.75
    endloop
  endfacet
  facet normal 0 0 1
    outer loop
      vertex 7.4 33.05 1.75
      vertex 82.6 33.05 1.75
      vertex 89.9215 33.1217 1.75
    endloop
  endfacet
  facet normal 0 0 1
    outer loop
      vertex 2.67624 5.2 1.75
      vertex 4.52376 5.2 1.75
      vertex 3.99721 7.37918 1.75
    endloop
  endfacet
  facet normal 0 0 1
    outer loop
      vertex 2.67624 5.2 1.75
      vertex 3.99721 7.37918 1.75
      vertex 3.6 7.37918 1.75
    endloop
  endfacet
  facet normal 0 0 1
    outer loop
      vertex 88.7044 0.309233 1.75
      vertex 89.2114 0.677578 1.75
      vertex 85.4762 2 1.75
    endloop
  endfacet
  facet normal 0 0 1
    outer loop
      vertex 87.3238 5.2 1.75
      vertex 88.2475 3.6 1.75
      vertex 90 2.5 1.75
    endloop
  endfacet
  facet normal 0 0 1
    outer loop
      vertex 88.2475 3.6 1.75
      vertex 89.9951 2.34302 1.75
      vertex 89.9852 2.5 1.75
    endloop
  endfacet
  facet normal 0 0 1
    outer loop
      vertex 90 2.5 1.75
      vertex 85.6099 7.31696 1.75
      vertex 87.3238 5.2 1.75
    endloop
  endfacet
  facet normal 0 0 1
    outer loop
      vertex 88.2475 3.6 1.75
      vertex 89.9852 2.5 1.75
      vertex 90 2.5 1.75
    endloop
  endfacet
  facet normal 0 0 1
    outer loop
      vertex 87.3238 29.8 1.75
      vertex 84.5 28.1091 1.75
      vertex 85.2257 27.786 1.75
    endloop
  endfacet
  facet normal 0 0 1
    outer loop
      vertex 83.8573 28.576 1.75
      vertex 85.4762 29.8 1.75
      vertex 83.3257 29.1664 1.75
    endloop
  endfacet
  facet normal 0 0 1
    outer loop
      vertex 83.3257 29.1664 1.75
      vertex 84.5525 31.4 1.75
      vertex 82.6 31.4 1.75
    endloop
  endfacet
  facet normal 0 0 1
    outer loop
      vertex 87.3238 33 1.75
      vertex 89.9215 33.1217 1.75
      vertex 85.4762 33 1.75
    endloop
  endfacet
  facet normal 0 0 1
    outer loop
      vertex 89.9937 32.55 1.75
      vertex 89.9215 33.1217 1.75
      vertex 87.3238 33 1.75
    endloop
  endfacet
  facet normal 0 0 1
    outer loop
      vertex 84.5525 31.4 1.75
      vertex 82.6 33.05 1.75
      vertex 82.6 31.4 1.75
    endloop
  endfacet
  facet normal 0 0 1
    outer loop
      vertex 86.0028 27.6208 1.75
      vertex 87.3238 29.8 1.75
      vertex 85.2257 27.786 1.75
    endloop
  endfacet
  facet normal 0 0 1
    outer loop
      vertex 86.0028 27.6208 1.75
      vertex 90 32.55 1.75
      vertex 87.3238 29.8 1.75
    endloop
  endfacet
  facet normal 0 0 1
    outer loop
      vertex 0.004933 32.657 1.75
      vertex 0.788632 34.3224 1.75
      vertex 0.38918 33.8396 1.75
    endloop
  endfacet
  facet normal 0 0 1
    outer loop
      vertex 0.004933 32.657 1.75
      vertex 1.29562 34.6908 1.75
      vertex 0.788632 34.3224 1.75
    endloop
  endfacet
  facet normal 0 0 1
    outer loop
      vertex 0.004933 32.657 1.75
      vertex 1.87828 34.9215 1.75
      vertex 1.29562 34.6908 1.75
    endloop
  endfacet
  facet normal 0 0 1
    outer loop
      vertex 0.004933 32.657 1.75
      vertex 2.45 34.9937 1.75
      vertex 1.87828 34.9215 1.75
    endloop
  endfacet
  facet normal 0 0 1
    outer loop
      vertex 0.004933 32.657 1.75
      vertex 2.67624 33 1.75
      vertex 2.45 34.9937 1.75
    endloop
  endfacet
  facet normal 0 0 1
    outer loop
      vertex 5.44752 31.4 1.75
      vertex 6.8909 29.5 1.75
      vertex 7.21401 30.2257 1.75
    endloop
  endfacet
  facet normal 0 0 1
    outer loop
      vertex 5.44752 31.4 1.75
      vertex 4.52376 29.8 1.75
      vertex 6.8909 29.5 1.75
    endloop
  endfacet
  facet normal 0 0 1
    outer loop
      vertex 7.37918 31.4 1.75
      vertex 4.52376 33 1.75
      vertex 5.44752 31.4 1.75
    endloop
  endfacet
  facet normal 0 0 1
    outer loop
      vertex 7.4 31.4 1.75
      vertex 4.52376 33 1.75
      vertex 7.37918 31.4 1.75
    endloop
  endfacet
  facet normal 0 0 1
    outer loop
      vertex 7.4 31.4 1.75
      vertex 7.4 33.05 1.75
      vertex 4.52376 33 1.75
    endloop
  endfacet
  facet normal 0 0 1
    outer loop
      vertex 82.6 1.95 1.75
      vertex 87.55 0 1.75
      vertex 87.55 0.00631646 1.75
    endloop
  endfacet
  facet normal 0 0 1
    outer loop
      vertex 88.2475 31.4 1.75
      vertex 87.3238 29.8 1.75
      vertex 90 32.55 1.75
    endloop
  endfacet
  facet normal 0 0 1
    outer loop
      vertex 7.31696 4.39006 1.75
      vertex 7.07147 5.1456 1.75
      vertex 4.52376 5.2 1.75
    endloop
  endfacet
  facet normal 0 0 1
    outer loop
      vertex 7.4 1.95 1.75
      vertex 7.4 3.6 1.75
      vertex 5.44752 3.6 1.75
    endloop
  endfacet
  facet normal 0 0 1
    outer loop
      vertex 3.6 7.4 1.75
      vertex 1.95 7.4 1.75
      vertex 2.67624 5.2 1.75
    endloop
  endfacet
  facet normal 0 0 1
    outer loop
      vertex 1.95 7.4 1.75
      vertex 1.95 27.6 1.75
      vertex 0 32.5 1.75
    endloop
  endfacet
  facet normal 0 0 1
    outer loop
      vertex 1.75248 31.4 1.75
      vertex 0.0148092 32.5 1.75
      vertex 0 32.5 1.75
    endloop
  endfacet
  facet normal 0 0 1
    outer loop
      vertex 1.75248 31.4 1.75
      vertex 0.004933 32.657 1.75
      vertex 0.0148092 32.5 1.75
    endloop
  endfacet
  facet normal 0 0 1
    outer loop
      vertex 1.75248 31.4 1.75
      vertex 2.67624 33 1.75
      vertex 0.004933 32.657 1.75
    endloop
  endfacet
  facet normal -0.992115 -0.125333 0
    outer loop
      vertex 0.00631646 2.45 0
      vertex 0.078542 1.87828 0
      vertex 0.00631646 2.45 1.75
    endloop
  endfacet
  facet normal -0.992115 -0.125333 0
    outer loop
      vertex 0.00631646 2.45 1.75
      vertex 0.078542 1.87828 0
      vertex 0.078542 1.87828 1.75
    endloop
  endfacet
  facet normal -0.929776 -0.368125 0
    outer loop
      vertex 0.078542 1.87828 0
      vertex 0.309233 1.29562 0
      vertex 0.078542 1.87828 1.75
    endloop
  endfacet
  facet normal -0.929776 -0.368125 0
    outer loop
      vertex 0.078542 1.87828 1.75
      vertex 0.309233 1.29562 0
      vertex 0.309233 1.29562 1.75
    endloop
  endfacet
  facet normal -0.809017 -0.587785 0
    outer loop
      vertex 0.309233 1.29562 0
      vertex 0.677578 0.788632 0
      vertex 0.309233 1.29562 1.75
    endloop
  endfacet
  facet normal -0.809017 -0.587785 0
    outer loop
      vertex 0.309233 1.29562 1.75
      vertex 0.677578 0.788632 0
      vertex 0.677578 0.788632 1.75
    endloop
  endfacet
  facet normal -0.637424 -0.770514 0
    outer loop
      vertex 0.677578 0.788632 1.75
      vertex 0.677578 0.788632 0
      vertex 1.16043 0.38918 0
    endloop
  endfacet
  facet normal -0.637424 -0.770514 0
    outer loop
      vertex 1.16043 0.38918 1.75
      vertex 0.677578 0.788632 1.75
      vertex 1.16043 0.38918 0
    endloop
  endfacet
  facet normal -0.425778 -0.904827 0
    outer loop
      vertex 1.16043 0.38918 1.75
      vertex 1.16043 0.38918 0
      vertex 1.72746 0.122359 0
    endloop
  endfacet
  facet normal -0.425778 -0.904827 0
    outer loop
      vertex 1.72746 0.122359 1.75
      vertex 1.16043 0.38918 1.75
      vertex 1.72746 0.122359 0
    endloop
  endfacet
  facet normal -0.187382 -0.982287 0
    outer loop
      vertex 1.72746 0.122359 1.75
      vertex 1.72746 0.122359 0
      vertex 2.34302 0.004933 0
    endloop
  endfacet
  facet normal -0.187382 -0.982287 0
    outer loop
      vertex 2.34302 0.004933 1.75
      vertex 1.72746 0.122359 1.75
      vertex 2.34302 0.004933 0
    endloop
  endfacet
  facet normal 0.0627911 -0.998027 0
    outer loop
      vertex 2.34302 0.004933 1.75
      vertex 2.34302 0.004933 0
      vertex 2.5 0.0148092 0
    endloop
  endfacet
  facet normal 0.0627911 -0.998027 0
    outer loop
      vertex 2.5 0.0148092 1.75
      vertex 2.34302 0.004933 1.75
      vertex 2.5 0.0148092 0
    endloop
  endfacet
  facet normal -1 1.22465e-16 0
    outer loop
      vertex 2.5 0.0148092 1.75
      vertex 2.5 0.0148092 0
      vertex 2.5 0 1.75
    endloop
  endfacet
  facet normal -1 1.22465e-16 0
    outer loop
      vertex 2.5 0 1.75
      vertex 2.5 0.0148092 0
      vertex 2.5 0 0
    endloop
  endfacet
  facet normal 0 -1 0
    outer loop
      vertex 2.5 0 1.75
      vertex 2.5 0 0
      vertex 87.55 0 0
    endloop
  endfacet
  facet normal 0 -1 0
    outer loop
      vertex 87.55 0 1.75
      vertex 2.5 0 1.75
      vertex 87.55 0 0
    endloop
  endfacet
  facet normal 1 -1.83697e-16 0
    outer loop
      vertex 87.55 0.00631646 0
      vertex 87.55 0.00631646 1.75
      vertex 87.55 0 1.75
    endloop
  endfacet
  facet normal 1 -1.83697e-16 0
    outer loop
      vertex 87.55 0 0
      vertex 87.55 0.00631646 0
      vertex 87.55 0 1.75
    endloop
  endfacet
  facet normal 0.125333 -0.992115 0
    outer loop
      vertex 87.55 0.00631646 1.75
      vertex 87.55 0.00631646 0
      vertex 88.1217 0.078542 0
    endloop
  endfacet
  facet normal 0.125333 -0.992115 0
    outer loop
      vertex 88.1217 0.078542 1.75
      vertex 87.55 0.00631646 1.75
      vertex 88.1217 0.078542 0
    endloop
  endfacet
  facet normal 0.368125 -0.929776 0
    outer loop
      vertex 88.1217 0.078542 1.75
      vertex 88.1217 0.078542 0
      vertex 88.7044 0.309233 0
    endloop
  endfacet
  facet normal 0.368125 -0.929776 0
    outer loop
      vertex 88.7044 0.309233 1.75
      vertex 88.1217 0.078542 1.75
      vertex 88.7044 0.309233 0
    endloop
  endfacet
  facet normal 0.587785 -0.809017 0
    outer loop
      vertex 88.7044 0.309233 1.75
      vertex 88.7044 0.309233 0
      vertex 89.2114 0.677578 0
    endloop
  endfacet
  facet normal 0.587785 -0.809017 0
    outer loop
      vertex 89.2114 0.677578 1.75
      vertex 88.7044 0.309233 1.75
      vertex 89.2114 0.677578 0
    endloop
  endfacet
  facet normal 0.770514 -0.637424 0
    outer loop
      vertex 89.2114 0.677578 1.75
      vertex 89.2114 0.677578 0
      vertex 89.6108 1.16043 0
    endloop
  endfacet
  facet normal 0.770514 -0.637424 0
    outer loop
      vertex 89.6108 1.16043 1.75
      vertex 89.2114 0.677578 1.75
      vertex 89.6108 1.16043 0
    endloop
  endfacet
  facet normal 0.904827 -0.425778 0
    outer loop
      vertex 89.6108 1.16043 1.75
      vertex 89.6108 1.16043 0
      vertex 89.8776 1.72746 0
    endloop
  endfacet
  facet normal 0.904827 -0.425778 0
    outer loop
      vertex 89.8776 1.72746 1.75
      vertex 89.6108 1.16043 1.75
      vertex 89.8776 1.72746 0
    endloop
  endfacet
  facet normal 0.982287 -0.187382 0
    outer loop
      vertex 89.8776 1.72746 1.75
      vertex 89.8776 1.72746 0
      vertex 89.9951 2.34302 0
    endloop
  endfacet
  facet normal 0.982287 -0.187382 0
    outer loop
      vertex 89.9951 2.34302 1.75
      vertex 89.8776 1.72746 1.75
      vertex 89.9951 2.34302 0
    endloop
  endfacet
  facet normal 0.998027 0.0627911 0
    outer loop
      vertex 89.9951 2.34302 0
      vertex 89.9852 2.5 0
      vertex 89.9852 2.5 1.75
    endloop
  endfacet
  facet normal 0.998027 0.0627911 0
    outer loop
      vertex 89.9951 2.34302 1.75
      vertex 89.9951 2.34302 0
      vertex 89.9852 2.5 1.75
    endloop
  endfacet
  facet normal -1.83697e-16 -1 0
    outer loop
      vertex 90 2.5 0
      vertex 90 2.5 1.75
      vertex 89.9852 2.5 1.75
    endloop
  endfacet
  facet normal -1.83697e-16 -1 0
    outer loop
      vertex 89.9852 2.5 0
      vertex 90 2.5 0
      vertex 89.9852 2.5 1.75
    endloop
  endfacet
  facet normal 1 0 0
    outer loop
      vertex 90 2.5 1.75
      vertex 90 2.5 0
      vertex 90 32.55 0
    endloop
  endfacet
  facet normal 1 0 0
    outer loop
      vertex 90 32.55 1.75
      vertex 90 2.5 1.75
      vertex 90 32.55 0
    endloop
  endfacet
  facet normal 0 1 0
    outer loop
      vertex 90 32.55 1.75
      vertex 90 32.55 0
      vertex 89.9937 32.55 1.75
    endloop
  endfacet
  facet normal 0 1 0
    outer loop
      vertex 89.9937 32.55 1.75
      vertex 90 32.55 0
      vertex 89.9937 32.55 0
    endloop
  endfacet
  facet normal 0.992115 0.125333 0
    outer loop
      vertex 89.9937 32.55 0
      vertex 89.9215 33.1217 0
      vertex 89.9215 33.1217 1.75
    endloop
  endfacet
  facet normal 0.992115 0.125333 0
    outer loop
      vertex 89.9937 32.55 1.75
      vertex 89.9937 32.55 0
      vertex 89.9215 33.1217 1.75
    endloop
  endfacet
  facet normal 0.929776 0.368125 0
    outer loop
      vertex 89.9215 33.1217 0
      vertex 89.6908 33.7044 0
      vertex 89.6908 33.7044 1.75
    endloop
  endfacet
  facet normal 0.929776 0.368125 0
    outer loop
      vertex 89.9215 33.1217 1.75
      vertex 89.9215 33.1217 0
      vertex 89.6908 33.7044 1.75
    endloop
  endfacet
  facet normal 0.809017 0.587785 0
    outer loop
      vertex 89.6908 33.7044 0
      vertex 89.3224 34.2114 0
      vertex 89.3224 34.2114 1.75
    endloop
  endfacet
  facet normal 0.809017 0.587785 0
    outer loop
      vertex 89.6908 33.7044 1.75
      vertex 89.6908 33.7044 0
      vertex 89.3224 34.2114 1.75
    endloop
  endfacet
  facet normal 0.637424 0.770514 0
    outer loop
      vertex 88.8396 34.6108 0
      vertex 88.8396 34.6108 1.75
      vertex 89.3224 34.2114 0
    endloop
  endfacet
  facet normal 0.637424 0.770514 0
    outer loop
      vertex 89.3224 34.2114 0
      vertex 88.8396 34.6108 1.75
      vertex 89.3224 34.2114 1.75
    endloop
  endfacet
  facet normal 0.425778 0.904827 0
    outer loop
      vertex 88.2725 34.8776 0
      vertex 88.2725 34.8776 1.75
      vertex 88.8396 34.6108 0
    endloop
  endfacet
  facet normal 0.425778 0.904827 0
    outer loop
      vertex 88.8396 34.6108 0
      vertex 88.2725 34.8776 1.75
      vertex 88.8396 34.6108 1.75
    endloop
  endfacet
  facet normal 0.187382 0.982287 0
    outer loop
      vertex 87.657 34.9951 0
      vertex 87.657 34.9951 1.75
      vertex 88.2725 34.8776 0
    endloop
  endfacet
  facet normal 0.187382 0.982287 0
    outer loop
      vertex 88.2725 34.8776 0
      vertex 87.657 34.9951 1.75
      vertex 88.2725 34.8776 1.75
    endloop
  endfacet
  facet normal -0.0627911 0.998027 0
    outer loop
      vertex 87.5 34.9852 0
      vertex 87.5 34.9852 1.75
      vertex 87.657 34.9951 0
    endloop
  endfacet
  facet normal -0.0627911 0.998027 0
    outer loop
      vertex 87.657 34.9951 0
      vertex 87.5 34.9852 1.75
      vertex 87.657 34.9951 1.75
    endloop
  endfacet
  facet normal 1 0 0
    outer loop
      vertex 87.5 35 0
      vertex 87.5 35 1.75
      vertex 87.5 34.9852 1.75
    endloop
  endfacet
  facet normal 1 0 0
    outer loop
      vertex 87.5 34.9852 0
      vertex 87.5 35 0
      vertex 87.5 34.9852 1.75
    endloop
  endfacet
  facet normal 0 1 0
    outer loop
      vertex 2.45 35 0
      vertex 2.45 35 1.75
      vertex 87.5 35 0
    endloop
  endfacet
  facet normal 0 1 0
    outer loop
      vertex 87.5 35 0
      vertex 2.45 35 1.75
      vertex 87.5 35 1.75
    endloop
  endfacet
  facet normal -1 6.12323e-17 0
    outer loop
      vertex 2.45 35 1.75
      vertex 2.45 35 0
      vertex 2.45 34.9937 1.75
    endloop
  endfacet
  facet normal -1 6.12323e-17 0
    outer loop
      vertex 2.45 34.9937 1.75
      vertex 2.45 35 0
      vertex 2.45 34.9937 0
    endloop
  endfacet
  facet normal -0.125333 0.992115 0
    outer loop
      vertex 1.87828 34.9215 0
      vertex 1.87828 34.9215 1.75
      vertex 2.45 34.9937 0
    endloop
  endfacet
  facet normal -0.125333 0.992115 0
    outer loop
      vertex 2.45 34.9937 0
      vertex 1.87828 34.9215 1.75
      vertex 2.45 34.9937 1.75
    endloop
  endfacet
  facet normal -0.368125 0.929776 0
    outer loop
      vertex 1.29562 34.6908 0
      vertex 1.29562 34.6908 1.75
      vertex 1.87828 34.9215 0
    endloop
  endfacet
  facet normal -0.368125 0.929776 0
    outer loop
      vertex 1.87828 34.9215 0
      vertex 1.29562 34.6908 1.75
      vertex 1.87828 34.9215 1.75
    endloop
  endfacet
  facet normal -0.587785 0.809017 0
    outer loop
      vertex 0.788632 34.3224 0
      vertex 0.788632 34.3224 1.75
      vertex 1.29562 34.6908 0
    endloop
  endfacet
  facet normal -0.587785 0.809017 0
    outer loop
      vertex 1.29562 34.6908 0
      vertex 0.788632 34.3224 1.75
      vertex 1.29562 34.6908 1.75
    endloop
  endfacet
  facet normal -0.770514 0.637424 0
    outer loop
      vertex 0.38918 33.8396 0
      vertex 0.38918 33.8396 1.75
      vertex 0.788632 34.3224 0
    endloop
  endfacet
  facet normal -0.770514 0.637424 0
    outer loop
      vertex 0.788632 34.3224 0
      vertex 0.38918 33.8396 1.75
      vertex 0.788632 34.3224 1.75
    endloop
  endfacet
  facet normal -0.904827 0.425778 0
    outer loop
      vertex 0.122359 33.2725 0
      vertex 0.122359 33.2725 1.75
      vertex 0.38918 33.8396 0
    endloop
  endfacet
  facet normal -0.904827 0.425778 0
    outer loop
      vertex 0.38918 33.8396 0
      vertex 0.122359 33.2725 1.75
      vertex 0.38918 33.8396 1.75
    endloop
  endfacet
  facet normal -0.982287 0.187382 0
    outer loop
      vertex 0.004933 32.657 0
      vertex 0.004933 32.657 1.75
      vertex 0.122359 33.2725 0
    endloop
  endfacet
  facet normal -0.982287 0.187382 0
    outer loop
      vertex 0.122359 33.2725 0
      vertex 0.004933 32.657 1.75
      vertex 0.122359 33.2725 1.75
    endloop
  endfacet
  facet normal -0.998027 -0.0627911 0
    outer loop
      vertex 0.004933 32.657 0
      vertex 0.0148092 32.5 0
      vertex 0.004933 32.657 1.75
    endloop
  endfacet
  facet normal -0.998027 -0.0627911 0
    outer loop
      vertex 0.004933 32.657 1.75
      vertex 0.0148092 32.5 0
      vertex 0.0148092 32.5 1.75
    endloop
  endfacet
  facet normal 0.866025 0.5 0
    outer loop
      vertex 1.75248 3.6 1.75
      vertex 2.67624 2 1.75
      vertex 2.67624 2 0
    endloop
  endfacet
  facet normal 0.866025 0.5 0
    outer loop
      vertex 1.75248 3.6 0
      vertex 1.75248 3.6 1.75
      vertex 2.67624 2 0
    endloop
  endfacet
  facet normal 0.866025 -0.5 0
    outer loop
      vertex 2.67624 5.2 0
      vertex 2.67624 5.2 1.75
      vertex 1.75248 3.6 1.75
    endloop
  endfacet
  facet normal 0.866025 -0.5 0
    outer loop
      vertex 1.75248 3.6 0
      vertex 2.67624 5.2 0
      vertex 1.75248 3.6 1.75
    endloop
  endfacet
  facet normal -1.22465e-16 -1 0
    outer loop
      vertex 4.52376 5.2 0
      vertex 4.52376 5.2 1.75
      vertex 2.67624 5.2 1.75
    endloop
  endfacet
  facet normal -1.22465e-16 -1 0
    outer loop
      vertex 2.67624 5.2 0
      vertex 4.52376 5.2 0
      vertex 2.67624 5.2 1.75
    endloop
  endfacet
  facet normal -0.866025 -0.5 0
    outer loop
      vertex 5.44752 3.6 1.75
      vertex 4.52376 5.2 1.75
      vertex 5.44752 3.6 0
    endloop
  endfacet
  facet normal -0.866025 -0.5 0
    outer loop
      vertex 5.44752 3.6 0
      vertex 4.52376 5.2 1.75
      vertex 4.52376 5.2 0
    endloop
  endfacet
  facet normal -0.866025 0.5 0
    outer loop
      vertex 5.44752 3.6 1.75
      vertex 5.44752 3.6 0
      vertex 4.52376 2 1.75
    endloop
  endfacet
  facet normal -0.866025 0.5 0
    outer loop
      vertex 4.52376 2 1.75
      vertex 5.44752 3.6 0
      vertex 4.52376 2 0
    endloop
  endfacet
  facet normal 1.22465e-16 1 0
    outer loop
      vertex 4.52376 2 1.75
      vertex 4.52376 2 0
      vertex 2.67624 2 1.75
    endloop
  endfacet
  facet normal 1.22465e-16 1 0
    outer loop
      vertex 2.67624 2 1.75
      vertex 4.52376 2 0
      vertex 2.67624 2 0
    endloop
  endfacet
  facet normal 0.866025 0.5 0
    outer loop
      vertex 1.75248 31.4 1.75
      vertex 2.67624 29.8 1.75
      vertex 2.67624 29.8 0
    endloop
  endfacet
  facet normal 0.866025 0.5 0
    outer loop
      vertex 1.75248 31.4 0
      vertex 1.75248 31.4 1.75
      vertex 2.67624 29.8 0
    endloop
  endfacet
  facet normal 0.866025 -0.5 0
    outer loop
      vertex 2.67624 33 0
      vertex 2.67624 33 1.75
      vertex 1.75248 31.4 1.75
    endloop
  endfacet
  facet normal 0.866025 -0.5 0
    outer loop
      vertex 1.75248 31.4 0
      vertex 2.67624 33 0
      vertex 1.75248 31.4 1.75
    endloop
  endfacet
  facet normal -1.22465e-16 -1 0
    outer loop
      vertex 4.52376 33 0
      vertex 4.52376 33 1.75
      vertex 2.67624 33 1.75
    endloop
  endfacet
  facet normal -1.22465e-16 -1 0
    outer loop
      vertex 2.67624 33 0
      vertex 4.52376 33 0
      vertex 2.67624 33 1.75
    endloop
  endfacet
  facet normal -0.866025 -0.5 0
    outer loop
      vertex 5.44752 31.4 1.75
      vertex 4.52376 33 1.75
      vertex 5.44752 31.4 0
    endloop
  endfacet
  facet normal -0.866025 -0.5 0
    outer loop
      vertex 5.44752 31.4 0
      vertex 4.52376 33 1.75
      vertex 4.52376 33 0
    endloop
  endfacet
  facet normal -0.866025 0.5 0
    outer loop
      vertex 5.44752 31.4 1.75
      vertex 5.44752 31.4 0
      vertex 4.52376 29.8 1.75
    endloop
  endfacet
  facet normal -0.866025 0.5 0
    outer loop
      vertex 4.52376 29.8 1.75
      vertex 5.44752 31.4 0
      vertex 4.52376 29.8 0
    endloop
  endfacet
  facet normal 1.22465e-16 1 0
    outer loop
      vertex 4.52376 29.8 1.75
      vertex 4.52376 29.8 0
      vertex 2.67624 29.8 1.75
    endloop
  endfacet
  facet normal 1.22465e-16 1 0
    outer loop
      vertex 2.67624 29.8 1.75
      vertex 4.52376 29.8 0
      vertex 2.67624 29.8 0
    endloop
  endfacet
  facet normal 0.866025 0.5 0
    outer loop
      vertex 84.5525 3.6 1.75
      vertex 85.4762 2 1.75
      vertex 85.4762 2 0
    endloop
  endfacet
  facet normal 0.866025 0.5 0
    outer loop
      vertex 84.5525 3.6 0
      vertex 84.5525 3.6 1.75
      vertex 85.4762 2 0
    endloop
  endfacet
  facet normal 0.866025 -0.5 0
    outer loop
      vertex 85.4762 5.2 0
      vertex 85.4762 5.2 1.75
      vertex 84.5525 3.6 1.75
    endloop
  endfacet
  facet normal 0.866025 -0.5 0
    outer loop
      vertex 84.5525 3.6 0
      vertex 85.4762 5.2 0
      vertex 84.5525 3.6 1.75
    endloop
  endfacet
  facet normal -1.22465e-16 -1 0
    outer loop
      vertex 87.3238 5.2 0
      vertex 87.3238 5.2 1.75
      vertex 85.4762 5.2 1.75
    endloop
  endfacet
  facet normal -1.22465e-16 -1 0
    outer loop
      vertex 85.4762 5.2 0
      vertex 87.3238 5.2 0
      vertex 85.4762 5.2 1.75
    endloop
  endfacet
  facet normal -0.866025 -0.5 0
    outer loop
      vertex 88.2475 3.6 1.75
      vertex 87.3238 5.2 1.75
      vertex 88.2475 3.6 0
    endloop
  endfacet
  facet normal -0.866025 -0.5 0
    outer loop
      vertex 88.2475 3.6 0
      vertex 87.3238 5.2 1.75
      vertex 87.3238 5.2 0
    endloop
  endfacet
  facet normal -0.866025 0.5 0
    outer loop
      vertex 88.2475 3.6 1.75
      vertex 88.2475 3.6 0
      vertex 87.3238 2 1.75
    endloop
  endfacet
  facet normal -0.866025 0.5 0
    outer loop
      vertex 87.3238 2 1.75
      vertex 88.2475 3.6 0
      vertex 87.3238 2 0
    endloop
  endfacet
  facet normal 1.22465e-16 1 0
    outer loop
      vertex 87.3238 2 1.75
      vertex 87.3238 2 0
      vertex 85.4762 2 1.75
    endloop
  endfacet
  facet normal 1.22465e-16 1 0
    outer loop
      vertex 85.4762 2 1.75
      vertex 87.3238 2 0
      vertex 85.4762 2 0
    endloop
  endfacet
  facet normal 0.866025 -0.5 0
    outer loop
      vertex 85.4762 33 0
      vertex 85.4762 33 1.75
      vertex 84.5525 31.4 1.75
    endloop
  endfacet
  facet normal 0.866025 -0.5 0
    outer loop
      vertex 84.5525 31.4 0
      vertex 85.4762 33 0
      vertex 84.5525 31.4 1.75
    endloop
  endfacet
  facet normal 0.866025 0.5 0
    outer loop
      vertex 84.5525 31.4 1.75
      vertex 85.4762 29.8 1.75
      vertex 85.4762 29.8 0
    endloop
  endfacet
  facet normal 0.866025 0.5 0
    outer loop
      vertex 84.5525 31.4 0
      vertex 84.5525 31.4 1.75
      vertex 85.4762 29.8 0
    endloop
  endfacet
  facet normal -1.22465e-16 -1 0
    outer loop
      vertex 87.3238 33 0
      vertex 87.3238 33 1.75
      vertex 85.4762 33 1.75
    endloop
  endfacet
  facet normal -1.22465e-16 -1 0
    outer loop
      vertex 85.4762 33 0
      vertex 87.3238 33 0
      vertex 85.4762 33 1.75
    endloop
  endfacet
  facet normal -0.866025 -0.5 0
    outer loop
      vertex 88.2475 31.4 1.75
      vertex 87.3238 33 1.75
      vertex 88.2475 31.4 0
    endloop
  endfacet
  facet normal -0.866025 -0.5 0
    outer loop
      vertex 88.2475 31.4 0
      vertex 87.3238 33 1.75
      vertex 87.3238 33 0
    endloop
  endfacet
  facet normal -0.866025 0.5 0
    outer loop
      vertex 88.2475 31.4 1.75
      vertex 88.2475 31.4 0
      vertex 87.3238 29.8 1.75
    endloop
  endfacet
  facet normal -0.866025 0.5 0
    outer loop
      vertex 87.3238 29.8 1.75
      vertex 88.2475 31.4 0
      vertex 87.3238 29.8 0
    endloop
  endfacet
  facet normal 1.22465e-16 1 0
    outer loop
      vertex 87.3238 29.8 1.75
      vertex 87.3238 29.8 0
      vertex 85.4762 29.8 1.75
    endloop
  endfacet
  facet normal 1.22465e-16 1 0
    outer loop
      vertex 85.4762 29.8 1.75
      vertex 87.3238 29.8 0
      vertex 85.4762 29.8 0
    endloop
  endfacet
  facet normal -1 0 0
    outer loop
      vertex 1.95 7.4 1.75
      vertex 1.95 7.4 3.5
      vertex 1.95 27.6 1.75
    endloop
  endfacet
  facet normal -1 0 0
    outer loop
      vertex 1.95 27.6 1.75
      vertex 1.95 7.4 3.5
      vertex 1.95 27.6 3.5
    endloop
  endfacet
  facet normal 0 -1 0
    outer loop
      vertex 1.95 7.4 3.5
      vertex 1.95 7.4 1.75
      vertex 3.6 7.4 1.75
    endloop
  endfacet
  facet normal 0 -1 0
    outer loop
      vertex 3.6 7.4 3.5
      vertex 1.95 7.4 3.5
      vertex 3.6 7.4 1.75
    endloop
  endfacet
  facet normal -1 1.22465e-16 0
    outer loop
      vertex 3.6 7.4 3.5
      vertex 3.6 7.4 1.75
      vertex 3.6 7.37918 3.5
    endloop
  endfacet
  facet normal -1 1.22465e-16 0
    outer loop
      vertex 3.6 7.37918 3.5
      vertex 3.6 7.4 1.75
      vertex 3.6 7.37918 1.75
    endloop
  endfacet
  facet normal -1.22465e-16 -1 0
    outer loop
      vertex 3.99721 7.37918 1.75
      vertex 3.99721 7.37918 3.5
      vertex 3.6 7.37918 3.5
    endloop
  endfacet
  facet normal -1.22465e-16 -1 0
    outer loop
      vertex 3.6 7.37918 1.75
      vertex 3.99721 7.37918 1.75
      vertex 3.6 7.37918 3.5
    endloop
  endfacet
  facet normal -0.207911 -0.978148 0
    outer loop
      vertex 4.77426 7.21401 1.75
      vertex 4.77426 7.21401 3.5
      vertex 3.99721 7.37918 3.5
    endloop
  endfacet
  facet normal -0.207911 -0.978148 0
    outer loop
      vertex 3.99721 7.37918 1.75
      vertex 4.77426 7.21401 1.75
      vertex 3.99721 7.37918 3.5
    endloop
  endfacet
  facet normal -0.406737 -0.913545 0
    outer loop
      vertex 5.5 6.8909 1.75
      vertex 5.5 6.8909 3.5
      vertex 4.77426 7.21401 3.5
    endloop
  endfacet
  facet normal -0.406737 -0.913545 0
    outer loop
      vertex 4.77426 7.21401 1.75
      vertex 5.5 6.8909 1.75
      vertex 4.77426 7.21401 3.5
    endloop
  endfacet
  facet normal -0.587786 -0.809016 0
    outer loop
      vertex 6.1427 6.42395 1.75
      vertex 6.1427 6.42395 3.5
      vertex 5.5 6.8909 3.5
    endloop
  endfacet
  facet normal -0.587786 -0.809016 0
    outer loop
      vertex 5.5 6.8909 1.75
      vertex 6.1427 6.42395 1.75
      vertex 5.5 6.8909 3.5
    endloop
  endfacet
  facet normal -0.743144 -0.669131 0
    outer loop
      vertex 6.67426 5.83358 3.5
      vertex 6.1427 6.42395 3.5
      vertex 6.67426 5.83358 1.75
    endloop
  endfacet
  facet normal -0.743144 -0.669131 0
    outer loop
      vertex 6.67426 5.83358 1.75
      vertex 6.1427 6.42395 3.5
      vertex 6.1427 6.42395 1.75
    endloop
  endfacet
  facet normal -0.866026 -0.5 0
    outer loop
      vertex 7.07147 5.1456 3.5
      vertex 6.67426 5.83358 3.5
      vertex 7.07147 5.1456 1.75
    endloop
  endfacet
  facet normal -0.866026 -0.5 0
    outer loop
      vertex 7.07147 5.1456 1.75
      vertex 6.67426 5.83358 3.5
      vertex 6.67426 5.83358 1.75
    endloop
  endfacet
  facet normal -0.951057 -0.309017 0
    outer loop
      vertex 7.31696 4.39006 3.5
      vertex 7.07147 5.1456 3.5
      vertex 7.31696 4.39006 1.75
    endloop
  endfacet
  facet normal -0.951057 -0.309017 0
    outer loop
      vertex 7.31696 4.39006 1.75
      vertex 7.07147 5.1456 3.5
      vertex 7.07147 5.1456 1.75
    endloop
  endfacet
  facet normal -0.994522 -0.104528 0
    outer loop
      vertex 7.4 3.6 3.5
      vertex 7.31696 4.39006 3.5
      vertex 7.4 3.6 1.75
    endloop
  endfacet
  facet normal -0.994522 -0.104528 0
    outer loop
      vertex 7.4 3.6 1.75
      vertex 7.31696 4.39006 3.5
      vertex 7.31696 4.39006 1.75
    endloop
  endfacet
  facet normal -1 0 0
    outer loop
      vertex 7.4 1.95 1.75
      vertex 7.4 1.95 3.5
      vertex 7.4 3.6 1.75
    endloop
  endfacet
  facet normal -1 0 0
    outer loop
      vertex 7.4 3.6 1.75
      vertex 7.4 1.95 3.5
      vertex 7.4 3.6 3.5
    endloop
  endfacet
  facet normal 0 -1 0
    outer loop
      vertex 7.4 1.95 3.5
      vertex 7.4 1.95 1.75
      vertex 82.6 1.95 1.75
    endloop
  endfacet
  facet normal 0 -1 0
    outer loop
      vertex 82.6 1.95 3.5
      vertex 7.4 1.95 3.5
      vertex 82.6 1.95 1.75
    endloop
  endfacet
  facet normal 1 0 0
    outer loop
      vertex 82.6 1.95 3.5
      vertex 82.6 1.95 1.75
      vertex 82.6 3.6 1.75
    endloop
  endfacet
  facet normal 1 0 0
    outer loop
      vertex 82.6 3.6 3.5
      vertex 82.6 1.95 3.5
      vertex 82.6 3.6 1.75
    endloop
  endfacet
  facet normal -1.83697e-16 -1 0
    outer loop
      vertex 82.6208 3.6 1.75
      vertex 82.6208 3.6 3.5
      vertex 82.6 3.6 3.5
    endloop
  endfacet
  facet normal -1.83697e-16 -1 0
    outer loop
      vertex 82.6 3.6 1.75
      vertex 82.6208 3.6 1.75
      vertex 82.6 3.6 3.5
    endloop
  endfacet
  facet normal 1 -1.83697e-16 0
    outer loop
      vertex 82.6208 3.99721 1.75
      vertex 82.6208 3.99721 3.5
      vertex 82.6208 3.6 3.5
    endloop
  endfacet
  facet normal 1 -1.83697e-16 0
    outer loop
      vertex 82.6208 3.6 1.75
      vertex 82.6208 3.99721 1.75
      vertex 82.6208 3.6 3.5
    endloop
  endfacet
  facet normal 0.978148 -0.207911 0
    outer loop
      vertex 82.786 4.77426 1.75
      vertex 82.786 4.77426 3.5
      vertex 82.6208 3.99721 3.5
    endloop
  endfacet
  facet normal 0.978148 -0.207911 0
    outer loop
      vertex 82.6208 3.99721 1.75
      vertex 82.786 4.77426 1.75
      vertex 82.6208 3.99721 3.5
    endloop
  endfacet
  facet normal 0.913545 -0.406737 0
    outer loop
      vertex 83.1091 5.5 1.75
      vertex 83.1091 5.5 3.5
      vertex 82.786 4.77426 3.5
    endloop
  endfacet
  facet normal 0.913545 -0.406737 0
    outer loop
      vertex 82.786 4.77426 1.75
      vertex 83.1091 5.5 1.75
      vertex 82.786 4.77426 3.5
    endloop
  endfacet
  facet normal 0.809016 -0.587786 0
    outer loop
      vertex 83.576 6.1427 1.75
      vertex 83.576 6.1427 3.5
      vertex 83.1091 5.5 3.5
    endloop
  endfacet
  facet normal 0.809016 -0.587786 0
    outer loop
      vertex 83.1091 5.5 1.75
      vertex 83.576 6.1427 1.75
      vertex 83.1091 5.5 3.5
    endloop
  endfacet
  facet normal 0.669131 -0.743144 0
    outer loop
      vertex 84.1664 6.67426 1.75
      vertex 84.1664 6.67426 3.5
      vertex 83.576 6.1427 3.5
    endloop
  endfacet
  facet normal 0.669131 -0.743144 0
    outer loop
      vertex 83.576 6.1427 1.75
      vertex 84.1664 6.67426 1.75
      vertex 83.576 6.1427 3.5
    endloop
  endfacet
  facet normal 0.5 -0.866026 0
    outer loop
      vertex 84.8544 7.07147 1.75
      vertex 84.8544 7.07147 3.5
      vertex 84.1664 6.67426 3.5
    endloop
  endfacet
  facet normal 0.5 -0.866026 0
    outer loop
      vertex 84.1664 6.67426 1.75
      vertex 84.8544 7.07147 1.75
      vertex 84.1664 6.67426 3.5
    endloop
  endfacet
  facet normal 0.309017 -0.951057 0
    outer loop
      vertex 85.6099 7.31696 1.75
      vertex 85.6099 7.31696 3.5
      vertex 84.8544 7.07147 3.5
    endloop
  endfacet
  facet normal 0.309017 -0.951057 0
    outer loop
      vertex 84.8544 7.07147 1.75
      vertex 85.6099 7.31696 1.75
      vertex 84.8544 7.07147 3.5
    endloop
  endfacet
  facet normal 0.104528 -0.994522 0
    outer loop
      vertex 86.4 7.4 1.75
      vertex 86.4 7.4 3.5
      vertex 85.6099 7.31696 3.5
    endloop
  endfacet
  facet normal 0.104528 -0.994522 0
    outer loop
      vertex 85.6099 7.31696 1.75
      vertex 86.4 7.4 1.75
      vertex 85.6099 7.31696 3.5
    endloop
  endfacet
  facet normal 0 -1 0
    outer loop
      vertex 86.4 7.4 3.5
      vertex 86.4 7.4 1.75
      vertex 88.05 7.4 1.75
    endloop
  endfacet
  facet normal 0 -1 0
    outer loop
      vertex 88.05 7.4 3.5
      vertex 86.4 7.4 3.5
      vertex 88.05 7.4 1.75
    endloop
  endfacet
  facet normal 1 0 0
    outer loop
      vertex 88.05 7.4 3.5
      vertex 88.05 7.4 1.75
      vertex 88.05 27.6 1.75
    endloop
  endfacet
  facet normal 1 0 0
    outer loop
      vertex 88.05 27.6 3.5
      vertex 88.05 7.4 3.5
      vertex 88.05 27.6 1.75
    endloop
  endfacet
  facet normal 0 1 0
    outer loop
      vertex 86.4 27.6 1.75
      vertex 86.4 27.6 3.5
      vertex 88.05 27.6 1.75
    endloop
  endfacet
  facet normal 0 1 0
    outer loop
      vertex 88.05 27.6 1.75
      vertex 86.4 27.6 3.5
      vertex 88.05 27.6 3.5
    endloop
  endfacet
  facet normal 1 0 0
    outer loop
      vertex 86.4 27.6208 1.75
      vertex 86.4 27.6208 3.5
      vertex 86.4 27.6 3.5
    endloop
  endfacet
  facet normal 1 0 0
    outer loop
      vertex 86.4 27.6 1.75
      vertex 86.4 27.6208 1.75
      vertex 86.4 27.6 3.5
    endloop
  endfacet
  facet normal 0 1 0
    outer loop
      vertex 86.4 27.6208 3.5
      vertex 86.4 27.6208 1.75
      vertex 86.0028 27.6208 3.5
    endloop
  endfacet
  facet normal 0 1 0
    outer loop
      vertex 86.0028 27.6208 3.5
      vertex 86.4 27.6208 1.75
      vertex 86.0028 27.6208 1.75
    endloop
  endfacet
  facet normal 0.207911 0.978148 0
    outer loop
      vertex 86.0028 27.6208 3.5
      vertex 86.0028 27.6208 1.75
      vertex 85.2257 27.786 3.5
    endloop
  endfacet
  facet normal 0.207911 0.978148 0
    outer loop
      vertex 85.2257 27.786 3.5
      vertex 86.0028 27.6208 1.75
      vertex 85.2257 27.786 1.75
    endloop
  endfacet
  facet normal 0.406737 0.913545 0
    outer loop
      vertex 85.2257 27.786 3.5
      vertex 85.2257 27.786 1.75
      vertex 84.5 28.1091 3.5
    endloop
  endfacet
  facet normal 0.406737 0.913545 0
    outer loop
      vertex 84.5 28.1091 3.5
      vertex 85.2257 27.786 1.75
      vertex 84.5 28.1091 1.75
    endloop
  endfacet
  facet normal 0.587786 0.809016 0
    outer loop
      vertex 84.5 28.1091 3.5
      vertex 84.5 28.1091 1.75
      vertex 83.8573 28.576 3.5
    endloop
  endfacet
  facet normal 0.587786 0.809016 0
    outer loop
      vertex 83.8573 28.576 3.5
      vertex 84.5 28.1091 1.75
      vertex 83.8573 28.576 1.75
    endloop
  endfacet
  facet normal 0.743144 0.669131 0
    outer loop
      vertex 83.3257 29.1664 3.5
      vertex 83.8573 28.576 3.5
      vertex 83.8573 28.576 1.75
    endloop
  endfacet
  facet normal 0.743144 0.669131 0
    outer loop
      vertex 83.3257 29.1664 1.75
      vertex 83.3257 29.1664 3.5
      vertex 83.8573 28.576 1.75
    endloop
  endfacet
  facet normal 0.866026 0.5 0
    outer loop
      vertex 82.9285 29.8544 3.5
      vertex 83.3257 29.1664 3.5
      vertex 83.3257 29.1664 1.75
    endloop
  endfacet
  facet normal 0.866026 0.5 0
    outer loop
      vertex 82.9285 29.8544 1.75
      vertex 82.9285 29.8544 3.5
      vertex 83.3257 29.1664 1.75
    endloop
  endfacet
  facet normal 0.951057 0.309017 0
    outer loop
      vertex 82.683 30.6099 3.5
      vertex 82.9285 29.8544 3.5
      vertex 82.9285 29.8544 1.75
    endloop
  endfacet
  facet normal 0.951057 0.309017 0
    outer loop
      vertex 82.683 30.6099 1.75
      vertex 82.683 30.6099 3.5
      vertex 82.9285 29.8544 1.75
    endloop
  endfacet
  facet normal 0.994522 0.104528 0
    outer loop
      vertex 82.6 31.4 3.5
      vertex 82.683 30.6099 3.5
      vertex 82.683 30.6099 1.75
    endloop
  endfacet
  facet normal 0.994522 0.104528 0
    outer loop
      vertex 82.6 31.4 1.75
      vertex 82.6 31.4 3.5
      vertex 82.683 30.6099 1.75
    endloop
  endfacet
  facet normal 1 0 0
    outer loop
      vertex 82.6 31.4 3.5
      vertex 82.6 31.4 1.75
      vertex 82.6 33.05 1.75
    endloop
  endfacet
  facet normal 1 0 0
    outer loop
      vertex 82.6 33.05 3.5
      vertex 82.6 31.4 3.5
      vertex 82.6 33.05 1.75
    endloop
  endfacet
  facet normal 0 1 0
    outer loop
      vertex 7.4 33.05 1.75
      vertex 7.4 33.05 3.5
      vertex 82.6 33.05 1.75
    endloop
  endfacet
  facet normal 0 1 0
    outer loop
      vertex 82.6 33.05 1.75
      vertex 7.4 33.05 3.5
      vertex 82.6 33.05 3.5
    endloop
  endfacet
  facet normal -1 0 0
    outer loop
      vertex 7.4 31.4 1.75
      vertex 7.4 31.4 3.5
      vertex 7.4 33.05 1.75
    endloop
  endfacet
  facet normal -1 0 0
    outer loop
      vertex 7.4 33.05 1.75
      vertex 7.4 31.4 3.5
      vertex 7.4 33.05 3.5
    endloop
  endfacet
  facet normal 6.12323e-17 1 0
    outer loop
      vertex 7.4 31.4 3.5
      vertex 7.4 31.4 1.75
      vertex 7.37918 31.4 3.5
    endloop
  endfacet
  facet normal 6.12323e-17 1 0
    outer loop
      vertex 7.37918 31.4 3.5
      vertex 7.4 31.4 1.75
      vertex 7.37918 31.4 1.75
    endloop
  endfacet
  facet normal -1 6.12323e-17 0
    outer loop
      vertex 7.37918 31.4 3.5
      vertex 7.37918 31.4 1.75
      vertex 7.37918 31.0028 3.5
    endloop
  endfacet
  facet normal -1 6.12323e-17 0
    outer loop
      vertex 7.37918 31.0028 3.5
      vertex 7.37918 31.4 1.75
      vertex 7.37918 31.0028 1.75
    endloop
  endfacet
  facet normal -0.978148 0.207911 0
    outer loop
      vertex 7.37918 31.0028 3.5
      vertex 7.37918 31.0028 1.75
      vertex 7.21401 30.2257 3.5
    endloop
  endfacet
  facet normal -0.978148 0.207911 0
    outer loop
      vertex 7.21401 30.2257 3.5
      vertex 7.37918 31.0028 1.75
      vertex 7.21401 30.2257 1.75
    endloop
  endfacet
  facet normal -0.913545 0.406737 0
    outer loop
      vertex 7.21401 30.2257 3.5
      vertex 7.21401 30.2257 1.75
      vertex 6.8909 29.5 3.5
    endloop
  endfacet
  facet normal -0.913545 0.406737 0
    outer loop
      vertex 6.8909 29.5 3.5
      vertex 7.21401 30.2257 1.75
      vertex 6.8909 29.5 1.75
    endloop
  endfacet
  facet normal -0.809016 0.587786 0
    outer loop
      vertex 6.8909 29.5 3.5
      vertex 6.8909 29.5 1.75
      vertex 6.42395 28.8573 3.5
    endloop
  endfacet
  facet normal -0.809016 0.587786 0
    outer loop
      vertex 6.42395 28.8573 3.5
      vertex 6.8909 29.5 1.75
      vertex 6.42395 28.8573 1.75
    endloop
  endfacet
  facet normal -0.669131 0.743144 0
    outer loop
      vertex 6.42395 28.8573 3.5
      vertex 6.42395 28.8573 1.75
      vertex 5.83358 28.3257 3.5
    endloop
  endfacet
  facet normal -0.669131 0.743144 0
    outer loop
      vertex 5.83358 28.3257 3.5
      vertex 6.42395 28.8573 1.75
      vertex 5.83358 28.3257 1.75
    endloop
  endfacet
  facet normal -0.5 0.866026 0
    outer loop
      vertex 5.83358 28.3257 3.5
      vertex 5.83358 28.3257 1.75
      vertex 5.1456 27.9285 3.5
    endloop
  endfacet
  facet normal -0.5 0.866026 0
    outer loop
      vertex 5.1456 27.9285 3.5
      vertex 5.83358 28.3257 1.75
      vertex 5.1456 27.9285 1.75
    endloop
  endfacet
  facet normal -0.309017 0.951057 0
    outer loop
      vertex 5.1456 27.9285 3.5
      vertex 5.1456 27.9285 1.75
      vertex 4.39006 27.683 3.5
    endloop
  endfacet
  facet normal -0.309017 0.951057 0
    outer loop
      vertex 4.39006 27.683 3.5
      vertex 5.1456 27.9285 1.75
      vertex 4.39006 27.683 1.75
    endloop
  endfacet
  facet normal -0.104528 0.994522 0
    outer loop
      vertex 4.39006 27.683 3.5
      vertex 4.39006 27.683 1.75
      vertex 3.6 27.6 3.5
    endloop
  endfacet
  facet normal -0.104528 0.994522 0
    outer loop
      vertex 3.6 27.6 3.5
      vertex 4.39006 27.683 1.75
      vertex 3.6 27.6 1.75
    endloop
  endfacet
  facet normal 0 1 0
    outer loop
      vertex 1.95 27.6 1.75
      vertex 1.95 27.6 3.5
      vertex 3.6 27.6 1.75
    endloop
  endfacet
  facet normal 0 1 0
    outer loop
      vertex 3.6 27.6 1.75
      vertex 1.95 27.6 3.5
      vertex 3.6 27.6 3.5
    endloop
  endfacet
  facet normal 0 0 1
    outer loop
      vertex 1.95 27.6 3.5
      vertex 1.95 7.4 3.5
      vertex 3.6 7.4 3.5
    endloop
  endfacet
  facet normal 0 0 1
    outer loop
      vertex 81.0265 5.34595 3.5
      vertex 80.781 4.19059 3.5
      vertex 82.6208 3.99721 3.5
    endloop
  endfacet
  facet normal 0 0 1
    outer loop
      vertex 3.8 9.21905 3.5
      vertex 1.95 27.6 3.5
      vertex 3.6 7.4 3.5
    endloop
  endfacet
  facet normal 0 0 1
    outer loop
      vertex 3.6 7.37918 3.5
      vertex 3.99721 7.37918 3.5
      vertex 3.6 7.4 3.5
    endloop
  endfacet
  facet normal 0 0 1
    outer loop
      vertex 81.0265 5.34595 3.5
      vertex 82.6208 3.99721 3.5
      vertex 82.786 4.77426 3.5
    endloop
  endfacet
  facet normal 0 0 1
    outer loop
      vertex 82.2012 7.38059 3.5
      vertex 83.576 6.1427 3.5
      vertex 84.1664 6.67426 3.5
    endloop
  endfacet
  facet normal 0 0 1
    outer loop
      vertex 82.2012 7.38059 3.5
      vertex 81.507 6.425 3.5
      vertex 83.576 6.1427 3.5
    endloop
  endfacet
  facet normal 0 0 1
    outer loop
      vertex 7.4 1.95 3.5
      vertex 82.6 1.95 3.5
      vertex 7.4 3.6 3.5
    endloop
  endfacet
  facet normal 0 0 1
    outer loop
      vertex 7.79877 27.6194 3.5
      vertex 8.49304 28.575 3.5
      vertex 5.83358 28.3257 3.5
    endloop
  endfacet
  facet normal 0 0 1
    outer loop
      vertex 81.8291 28.079 3.5
      vertex 86.0028 27.6208 3.5
      vertex 85.2257 27.786 3.5
    endloop
  endfacet
  facet normal 0 0 1
    outer loop
      vertex 7.79877 27.6194 3.5
      vertex 5.1456 27.9285 3.5
      vertex 4.39006 27.683 3.5
    endloop
  endfacet
  facet normal 0 0 1
    outer loop
      vertex 86.0028 27.6208 3.5
      vertex 86.4 27.6 3.5
      vertex 86.4 27.6208 3.5
    endloop
  endfacet
  facet normal 0 0 1
    outer loop
      vertex 81.2385 29.1019 3.5
      vertex 84.5 28.1091 3.5
      vertex 83.8573 28.576 3.5
    endloop
  endfacet
  facet normal 0 0 1
    outer loop
      vertex 80.8735 30.2253 3.5
      vertex 83.3257 29.1664 3.5
      vertex 82.9285 29.8544 3.5
    endloop
  endfacet
  facet normal 0 0 1
    outer loop
      vertex 6.92099 26.8291 3.5
      vertex 7.79877 27.6194 3.5
      vertex 3.6 27.6 3.5
    endloop
  endfacet
  facet normal 0 0 1
    outer loop
      vertex 88.05 7.4 3.5
      vertex 88.05 27.6 3.5
      vertex 86.4 27.6 3.5
    endloop
  endfacet
  facet normal 0 0 1
    outer loop
      vertex 5.34595 8.97347 3.5
      vertex 4.19059 9.21905 3.5
      vertex 4.77426 7.21401 3.5
    endloop
  endfacet
  facet normal 0 0 1
    outer loop
      vertex 4.19059 9.21905 3.5
      vertex 3.8 9.21905 3.5
      vertex 3.99721 7.37918 3.5
    endloop
  endfacet
  facet normal 0 0 1
    outer loop
      vertex 81.8291 28.079 3.5
      vertex 85.2257 27.786 3.5
      vertex 84.5 28.1091 3.5
    endloop
  endfacet
  facet normal 0 0 1
    outer loop
      vertex 81.2385 29.1019 3.5
      vertex 83.8573 28.576 3.5
      vertex 83.3257 29.1664 3.5
    endloop
  endfacet
  facet normal 0 0 1
    outer loop
      vertex 80.8735 30.2253 3.5
      vertex 82.9285 29.8544 3.5
      vertex 82.683 30.6099 3.5
    endloop
  endfacet
  facet normal 0 0 1
    outer loop
      vertex 80.771 31.2 3.5
      vertex 82.683 30.6099 3.5
      vertex 82.6 31.4 3.5
    endloop
  endfacet
  facet normal 0 0 1
    outer loop
      vertex 7.4 31.4 3.5
      vertex 82.6 33.05 3.5
      vertex 7.4 33.05 3.5
    endloop
  endfacet
  facet normal 0 0 1
    outer loop
      vertex 9.21905 31.2 3.5
      vertex 82.6 33.05 3.5
      vertex 7.4 31.4 3.5
    endloop
  endfacet
  facet normal 0 0 1
    outer loop
      vertex 8.49304 28.575 3.5
      vertex 8.97347 29.6541 3.5
      vertex 6.8909 29.5 3.5
    endloop
  endfacet
  facet normal 0 0 1
    outer loop
      vertex 9.21905 30.8094 3.5
      vertex 9.21905 31.2 3.5
      vertex 7.37918 31.0028 3.5
    endloop
  endfacet
  facet normal 0 0 1
    outer loop
      vertex 8.97347 29.6541 3.5
      vertex 9.21905 30.8094 3.5
      vertex 7.21401 30.2257 3.5
    endloop
  endfacet
  facet normal 0 0 1
    outer loop
      vertex 8.49304 28.575 3.5
      vertex 6.8909 29.5 3.5
      vertex 6.42395 28.8573 3.5
    endloop
  endfacet
  facet normal 0 0 1
    outer loop
      vertex 3.8 9.21905 3.5
      vertex 3.8 25.771 3.5
      vertex 1.95 27.6 3.5
    endloop
  endfacet
  facet normal 0 0 1
    outer loop
      vertex 80.771 31.2 3.5
      vertex 80.8735 30.2253 3.5
      vertex 82.683 30.6099 3.5
    endloop
  endfacet
  facet normal 0 0 1
    outer loop
      vertex 3.99721 7.37918 3.5
      vertex 3.8 9.21905 3.5
      vertex 3.6 7.4 3.5
    endloop
  endfacet
  facet normal 0 0 1
    outer loop
      vertex 6.425 8.49304 3.5
      vertex 7.07147 5.1456 3.5
      vertex 7.31696 4.39006 3.5
    endloop
  endfacet
  facet normal 0 0 1
    outer loop
      vertex 83.079 8.17095 3.5
      vertex 84.8544 7.07147 3.5
      vertex 85.6099 7.31696 3.5
    endloop
  endfacet
  facet normal 0 0 1
    outer loop
      vertex 6.425 8.49304 3.5
      vertex 5.34595 8.97347 3.5
      vertex 6.1427 6.42395 3.5
    endloop
  endfacet
  facet normal 0 0 1
    outer loop
      vertex 3.8 25.771 3.5
      vertex 4.7747 25.8735 3.5
      vertex 1.95 27.6 3.5
    endloop
  endfacet
  facet normal 0 0 1
    outer loop
      vertex 4.7747 25.8735 3.5
      vertex 5.89806 26.2385 3.5
      vertex 1.95 27.6 3.5
    endloop
  endfacet
  facet normal 0 0 1
    outer loop
      vertex 5.34595 8.97347 3.5
      vertex 4.77426 7.21401 3.5
      vertex 5.5 6.8909 3.5
    endloop
  endfacet
  facet normal 0 0 1
    outer loop
      vertex 5.83358 28.3257 3.5
      vertex 8.49304 28.575 3.5
      vertex 6.42395 28.8573 3.5
    endloop
  endfacet
  facet normal 0 0 1
    outer loop
      vertex 81.2385 29.1019 3.5
      vertex 81.8291 28.079 3.5
      vertex 84.5 28.1091 3.5
    endloop
  endfacet
  facet normal 0 0 1
    outer loop
      vertex 6.8909 29.5 3.5
      vertex 8.97347 29.6541 3.5
      vertex 7.21401 30.2257 3.5
    endloop
  endfacet
  facet normal 0 0 1
    outer loop
      vertex 86.0028 27.6208 3.5
      vertex 82.6194 27.2012 3.5
      vertex 86.4 27.6 3.5
    endloop
  endfacet
  facet normal 0 0 1
    outer loop
      vertex 7.21401 30.2257 3.5
      vertex 9.21905 30.8094 3.5
      vertex 7.37918 31.0028 3.5
    endloop
  endfacet
  facet normal 0 0 1
    outer loop
      vertex 81.8291 28.079 3.5
      vertex 82.6194 27.2012 3.5
      vertex 86.0028 27.6208 3.5
    endloop
  endfacet
  facet normal 0 0 1
    outer loop
      vertex 7.37918 31.0028 3.5
      vertex 9.21905 31.2 3.5
      vertex 7.4 31.4 3.5
    endloop
  endfacet
  facet normal 0 0 1
    outer loop
      vertex 83.575 26.507 3.5
      vertex 86.4 27.6 3.5
      vertex 82.6194 27.2012 3.5
    endloop
  endfacet
  facet normal 0 0 1
    outer loop
      vertex 84.1019 8.76153 3.5
      vertex 86.4 7.4 3.5
      vertex 88.05 7.4 3.5
    endloop
  endfacet
  facet normal 0 0 1
    outer loop
      vertex 84.6541 26.0265 3.5
      vertex 86.4 27.6 3.5
      vertex 83.575 26.507 3.5
    endloop
  endfacet
  facet normal 0 0 1
    outer loop
      vertex 84.1019 8.76153 3.5
      vertex 83.079 8.17095 3.5
      vertex 86.4 7.4 3.5
    endloop
  endfacet
  facet normal 0 0 1
    outer loop
      vertex 85.8094 25.781 3.5
      vertex 86.4 27.6 3.5
      vertex 84.6541 26.0265 3.5
    endloop
  endfacet
  facet normal 0 0 1
    outer loop
      vertex 86.2 25.781 3.5
      vertex 86.4 27.6 3.5
      vertex 85.8094 25.781 3.5
    endloop
  endfacet
  facet normal 0 0 1
    outer loop
      vertex 88.05 7.4 3.5
      vertex 86.4 27.6 3.5
      vertex 86.2 25.781 3.5
    endloop
  endfacet
  facet normal 0 0 1
    outer loop
      vertex 88.05 7.4 3.5
      vertex 86.2 9.22898 3.5
      vertex 85.2253 9.12653 3.5
    endloop
  endfacet
  facet normal 0 0 1
    outer loop
      vertex 83.079 8.17095 3.5
      vertex 82.2012 7.38059 3.5
      vertex 84.8544 7.07147 3.5
    endloop
  endfacet
  facet normal 0 0 1
    outer loop
      vertex 88.05 7.4 3.5
      vertex 85.2253 9.12653 3.5
      vertex 84.1019 8.76153 3.5
    endloop
  endfacet
  facet normal 0 0 1
    outer loop
      vertex 85.6099 7.31696 3.5
      vertex 86.4 7.4 3.5
      vertex 83.079 8.17095 3.5
    endloop
  endfacet
  facet normal 0 0 1
    outer loop
      vertex 84.1664 6.67426 3.5
      vertex 84.8544 7.07147 3.5
      vertex 82.2012 7.38059 3.5
    endloop
  endfacet
  facet normal 0 0 1
    outer loop
      vertex 83.1091 5.5 3.5
      vertex 83.576 6.1427 3.5
      vertex 81.507 6.425 3.5
    endloop
  endfacet
  facet normal 0 0 1
    outer loop
      vertex 7.79877 27.6194 3.5
      vertex 5.83358 28.3257 3.5
      vertex 5.1456 27.9285 3.5
    endloop
  endfacet
  facet normal 0 0 1
    outer loop
      vertex 82.786 4.77426 3.5
      vertex 83.1091 5.5 3.5
      vertex 81.0265 5.34595 3.5
    endloop
  endfacet
  facet normal 0 0 1
    outer loop
      vertex 82.6208 3.6 3.5
      vertex 82.6208 3.99721 3.5
      vertex 80.781 4.19059 3.5
    endloop
  endfacet
  facet normal 0 0 1
    outer loop
      vertex 82.6 1.95 3.5
      vertex 82.6 3.6 3.5
      vertex 80.781 3.8 3.5
    endloop
  endfacet
  facet normal 0 0 1
    outer loop
      vertex 7.4 3.6 3.5
      vertex 9.22898 3.8 3.5
      vertex 7.31696 4.39006 3.5
    endloop
  endfacet
  facet normal 0 0 1
    outer loop
      vertex 7.4 3.6 3.5
      vertex 82.6 1.95 3.5
      vertex 9.22898 3.8 3.5
    endloop
  endfacet
  facet normal 0 0 1
    outer loop
      vertex 7.38059 7.79877 3.5
      vertex 6.425 8.49304 3.5
      vertex 7.31696 4.39006 3.5
    endloop
  endfacet
  facet normal 0 0 1
    outer loop
      vertex 7.31696 4.39006 3.5
      vertex 9.12653 4.7747 3.5
      vertex 8.76153 5.89806 3.5
    endloop
  endfacet
  facet normal 0 0 1
    outer loop
      vertex 7.31696 4.39006 3.5
      vertex 8.76153 5.89806 3.5
      vertex 8.17095 6.92099 3.5
    endloop
  endfacet
  facet normal 0 0 1
    outer loop
      vertex 6.425 8.49304 3.5
      vertex 6.1427 6.42395 3.5
      vertex 6.67426 5.83358 3.5
    endloop
  endfacet
  facet normal 0 0 1
    outer loop
      vertex 7.31696 4.39006 3.5
      vertex 8.17095 6.92099 3.5
      vertex 7.38059 7.79877 3.5
    endloop
  endfacet
  facet normal 0 0 1
    outer loop
      vertex 81.507 6.425 3.5
      vertex 81.0265 5.34595 3.5
      vertex 83.1091 5.5 3.5
    endloop
  endfacet
  facet normal 0 0 1
    outer loop
      vertex 5.5 6.8909 3.5
      vertex 6.1427 6.42395 3.5
      vertex 5.34595 8.97347 3.5
    endloop
  endfacet
  facet normal 0 0 1
    outer loop
      vertex 6.425 8.49304 3.5
      vertex 6.67426 5.83358 3.5
      vertex 7.07147 5.1456 3.5
    endloop
  endfacet
  facet normal 0 0 1
    outer loop
      vertex 3.99721 7.37918 3.5
      vertex 4.77426 7.21401 3.5
      vertex 4.19059 9.21905 3.5
    endloop
  endfacet
  facet normal 0 0 1
    outer loop
      vertex 7.37918 31.4 3.5
      vertex 7.37918 31.0028 3.5
      vertex 7.4 31.4 3.5
    endloop
  endfacet
  facet normal 0 0 1
    outer loop
      vertex 9.21905 31.2 3.5
      vertex 82.6 31.4 3.5
      vertex 82.6 33.05 3.5
    endloop
  endfacet
  facet normal 0 0 1
    outer loop
      vertex 9.21905 31.2 3.5
      vertex 80.771 31.2 3.5
      vertex 82.6 31.4 3.5
    endloop
  endfacet
  facet normal 0 0 1
    outer loop
      vertex 80.781 3.8 3.5
      vertex 9.22898 3.8 3.5
      vertex 82.6 1.95 3.5
    endloop
  endfacet
  facet normal 0 0 1
    outer loop
      vertex 86.2 25.781 3.5
      vertex 86.2 9.22898 3.5
      vertex 88.05 7.4 3.5
    endloop
  endfacet
  facet normal 0 0 1
    outer loop
      vertex 80.8735 30.2253 3.5
      vertex 81.2385 29.1019 3.5
      vertex 83.3257 29.1664 3.5
    endloop
  endfacet
  facet normal 0 0 1
    outer loop
      vertex 4.39006 27.683 3.5
      vertex 3.6 27.6 3.5
      vertex 7.79877 27.6194 3.5
    endloop
  endfacet
  facet normal 0 0 1
    outer loop
      vertex 80.781 4.19059 3.5
      vertex 80.781 3.8 3.5
      vertex 82.6 3.6 3.5
    endloop
  endfacet
  facet normal 0 0 1
    outer loop
      vertex 80.781 4.19059 3.5
      vertex 82.6 3.6 3.5
      vertex 82.6208 3.6 3.5
    endloop
  endfacet
  facet normal 0 0 1
    outer loop
      vertex 9.22898 3.8 3.5
      vertex 9.12653 4.7747 3.5
      vertex 7.31696 4.39006 3.5
    endloop
  endfacet
  facet normal 0 0 1
    outer loop
      vertex 5.89806 26.2385 3.5
      vertex 3.6 27.6 3.5
      vertex 1.95 27.6 3.5
    endloop
  endfacet
  facet normal 0 0 1
    outer loop
      vertex 5.89806 26.2385 3.5
      vertex 6.92099 26.8291 3.5
      vertex 3.6 27.6 3.5
    endloop
  endfacet
  facet normal 1 0 0
    outer loop
      vertex 3.8 9.21905 3.5
      vertex 3.8 9.21905 1.75
      vertex 3.8 25.771 1.75
    endloop
  endfacet
  facet normal 1 0 0
    outer loop
      vertex 3.8 25.771 3.5
      vertex 3.8 9.21905 3.5
      vertex 3.8 25.771 1.75
    endloop
  endfacet
  facet normal 1.22465e-16 1 0
    outer loop
      vertex 3.8 9.21905 1.75
      vertex 3.8 9.21905 3.5
      vertex 4.19059 9.21905 1.75
    endloop
  endfacet
  facet normal 1.22465e-16 1 0
    outer loop
      vertex 4.19059 9.21905 1.75
      vertex 3.8 9.21905 3.5
      vertex 4.19059 9.21905 3.5
    endloop
  endfacet
  facet normal 0.207912 0.978147 0
    outer loop
      vertex 4.19059 9.21905 1.75
      vertex 4.19059 9.21905 3.5
      vertex 5.34595 8.97347 1.75
    endloop
  endfacet
  facet normal 0.207912 0.978147 0
    outer loop
      vertex 5.34595 8.97347 1.75
      vertex 4.19059 9.21905 3.5
      vertex 5.34595 8.97347 3.5
    endloop
  endfacet
  facet normal 0.406736 0.913546 0
    outer loop
      vertex 5.34595 8.97347 1.75
      vertex 5.34595 8.97347 3.5
      vertex 6.425 8.49304 1.75
    endloop
  endfacet
  facet normal 0.406736 0.913546 0
    outer loop
      vertex 6.425 8.49304 1.75
      vertex 5.34595 8.97347 3.5
      vertex 6.425 8.49304 3.5
    endloop
  endfacet
  facet normal 0.587786 0.809017 0
    outer loop
      vertex 6.425 8.49304 1.75
      vertex 6.425 8.49304 3.5
      vertex 7.38059 7.79877 1.75
    endloop
  endfacet
  facet normal 0.587786 0.809017 0
    outer loop
      vertex 7.38059 7.79877 1.75
      vertex 6.425 8.49304 3.5
      vertex 7.38059 7.79877 3.5
    endloop
  endfacet
  facet normal 0.743145 0.669131 0
    outer loop
      vertex 8.17095 6.92099 1.75
      vertex 7.38059 7.79877 1.75
      vertex 7.38059 7.79877 3.5
    endloop
  endfacet
  facet normal 0.743145 0.669131 0
    outer loop
      vertex 8.17095 6.92099 3.5
      vertex 8.17095 6.92099 1.75
      vertex 7.38059 7.79877 3.5
    endloop
  endfacet
  facet normal 0.866025 0.5 0
    outer loop
      vertex 8.76153 5.89806 1.75
      vertex 8.17095 6.92099 1.75
      vertex 8.17095 6.92099 3.5
    endloop
  endfacet
  facet normal 0.866025 0.5 0
    outer loop
      vertex 8.76153 5.89806 3.5
      vertex 8.76153 5.89806 1.75
      vertex 8.17095 6.92099 3.5
    endloop
  endfacet
  facet normal 0.951057 0.309017 0
    outer loop
      vertex 9.12653 4.7747 1.75
      vertex 8.76153 5.89806 1.75
      vertex 8.76153 5.89806 3.5
    endloop
  endfacet
  facet normal 0.951057 0.309017 0
    outer loop
      vertex 9.12653 4.7747 3.5
      vertex 9.12653 4.7747 1.75
      vertex 8.76153 5.89806 3.5
    endloop
  endfacet
  facet normal 0.994522 0.104528 0
    outer loop
      vertex 9.22898 3.8 1.75
      vertex 9.12653 4.7747 1.75
      vertex 9.12653 4.7747 3.5
    endloop
  endfacet
  facet normal 0.994522 0.104528 0
    outer loop
      vertex 9.22898 3.8 3.5
      vertex 9.22898 3.8 1.75
      vertex 9.12653 4.7747 3.5
    endloop
  endfacet
  facet normal 0 1 0
    outer loop
      vertex 9.22898 3.8 1.75
      vertex 9.22898 3.8 3.5
      vertex 80.781 3.8 1.75
    endloop
  endfacet
  facet normal 0 1 0
    outer loop
      vertex 80.781 3.8 1.75
      vertex 9.22898 3.8 3.5
      vertex 80.781 3.8 3.5
    endloop
  endfacet
  facet normal -1 1.83697e-16 0
    outer loop
      vertex 80.781 3.8 1.75
      vertex 80.781 3.8 3.5
      vertex 80.781 4.19059 1.75
    endloop
  endfacet
  facet normal -1 1.83697e-16 0
    outer loop
      vertex 80.781 4.19059 1.75
      vertex 80.781 3.8 3.5
      vertex 80.781 4.19059 3.5
    endloop
  endfacet
  facet normal -0.978147 0.207912 0
    outer loop
      vertex 80.781 4.19059 1.75
      vertex 80.781 4.19059 3.5
      vertex 81.0265 5.34595 1.75
    endloop
  endfacet
  facet normal -0.978147 0.207912 0
    outer loop
      vertex 81.0265 5.34595 1.75
      vertex 80.781 4.19059 3.5
      vertex 81.0265 5.34595 3.5
    endloop
  endfacet
  facet normal -0.913546 0.406736 0
    outer loop
      vertex 81.0265 5.34595 1.75
      vertex 81.0265 5.34595 3.5
      vertex 81.507 6.425 1.75
    endloop
  endfacet
  facet normal -0.913546 0.406736 0
    outer loop
      vertex 81.507 6.425 1.75
      vertex 81.0265 5.34595 3.5
      vertex 81.507 6.425 3.5
    endloop
  endfacet
  facet normal -0.809017 0.587786 0
    outer loop
      vertex 81.507 6.425 1.75
      vertex 81.507 6.425 3.5
      vertex 82.2012 7.38059 1.75
    endloop
  endfacet
  facet normal -0.809017 0.587786 0
    outer loop
      vertex 82.2012 7.38059 1.75
      vertex 81.507 6.425 3.5
      vertex 82.2012 7.38059 3.5
    endloop
  endfacet
  facet normal -0.669131 0.743145 0
    outer loop
      vertex 82.2012 7.38059 1.75
      vertex 82.2012 7.38059 3.5
      vertex 83.079 8.17095 1.75
    endloop
  endfacet
  facet normal -0.669131 0.743145 0
    outer loop
      vertex 83.079 8.17095 1.75
      vertex 82.2012 7.38059 3.5
      vertex 83.079 8.17095 3.5
    endloop
  endfacet
  facet normal -0.5 0.866025 0
    outer loop
      vertex 83.079 8.17095 1.75
      vertex 83.079 8.17095 3.5
      vertex 84.1019 8.76153 1.75
    endloop
  endfacet
  facet normal -0.5 0.866025 0
    outer loop
      vertex 84.1019 8.76153 1.75
      vertex 83.079 8.17095 3.5
      vertex 84.1019 8.76153 3.5
    endloop
  endfacet
  facet normal -0.309017 0.951057 0
    outer loop
      vertex 84.1019 8.76153 1.75
      vertex 84.1019 8.76153 3.5
      vertex 85.2253 9.12653 1.75
    endloop
  endfacet
  facet normal -0.309017 0.951057 0
    outer loop
      vertex 85.2253 9.12653 1.75
      vertex 84.1019 8.76153 3.5
      vertex 85.2253 9.12653 3.5
    endloop
  endfacet
  facet normal -0.104528 0.994522 0
    outer loop
      vertex 85.2253 9.12653 1.75
      vertex 85.2253 9.12653 3.5
      vertex 86.2 9.22898 1.75
    endloop
  endfacet
  facet normal -0.104528 0.994522 0
    outer loop
      vertex 86.2 9.22898 1.75
      vertex 85.2253 9.12653 3.5
      vertex 86.2 9.22898 3.5
    endloop
  endfacet
  facet normal -1 0 0
    outer loop
      vertex 86.2 9.22898 1.75
      vertex 86.2 9.22898 3.5
      vertex 86.2 25.781 1.75
    endloop
  endfacet
  facet normal -1 0 0
    outer loop
      vertex 86.2 25.781 1.75
      vertex 86.2 9.22898 3.5
      vertex 86.2 25.781 3.5
    endloop
  endfacet
  facet normal 0 -1 0
    outer loop
      vertex 85.8094 25.781 3.5
      vertex 85.8094 25.781 1.75
      vertex 86.2 25.781 1.75
    endloop
  endfacet
  facet normal 0 -1 0
    outer loop
      vertex 86.2 25.781 3.5
      vertex 85.8094 25.781 3.5
      vertex 86.2 25.781 1.75
    endloop
  endfacet
  facet normal -0.207912 -0.978147 0
    outer loop
      vertex 84.6541 26.0265 3.5
      vertex 84.6541 26.0265 1.75
      vertex 85.8094 25.781 1.75
    endloop
  endfacet
  facet normal -0.207912 -0.978147 0
    outer loop
      vertex 85.8094 25.781 3.5
      vertex 84.6541 26.0265 3.5
      vertex 85.8094 25.781 1.75
    endloop
  endfacet
  facet normal -0.406736 -0.913546 0
    outer loop
      vertex 83.575 26.507 3.5
      vertex 83.575 26.507 1.75
      vertex 84.6541 26.0265 1.75
    endloop
  endfacet
  facet normal -0.406736 -0.913546 0
    outer loop
      vertex 84.6541 26.0265 3.5
      vertex 83.575 26.507 3.5
      vertex 84.6541 26.0265 1.75
    endloop
  endfacet
  facet normal -0.587786 -0.809017 0
    outer loop
      vertex 82.6194 27.2012 3.5
      vertex 82.6194 27.2012 1.75
      vertex 83.575 26.507 1.75
    endloop
  endfacet
  facet normal -0.587786 -0.809017 0
    outer loop
      vertex 83.575 26.507 3.5
      vertex 82.6194 27.2012 3.5
      vertex 83.575 26.507 1.75
    endloop
  endfacet
  facet normal -0.743145 -0.669131 0
    outer loop
      vertex 81.8291 28.079 1.75
      vertex 82.6194 27.2012 1.75
      vertex 81.8291 28.079 3.5
    endloop
  endfacet
  facet normal -0.743145 -0.669131 0
    outer loop
      vertex 81.8291 28.079 3.5
      vertex 82.6194 27.2012 1.75
      vertex 82.6194 27.2012 3.5
    endloop
  endfacet
  facet normal -0.866025 -0.5 0
    outer loop
      vertex 81.2385 29.1019 1.75
      vertex 81.8291 28.079 1.75
      vertex 81.2385 29.1019 3.5
    endloop
  endfacet
  facet normal -0.866025 -0.5 0
    outer loop
      vertex 81.2385 29.1019 3.5
      vertex 81.8291 28.079 1.75
      vertex 81.8291 28.079 3.5
    endloop
  endfacet
  facet normal -0.951057 -0.309017 0
    outer loop
      vertex 80.8735 30.2253 1.75
      vertex 81.2385 29.1019 1.75
      vertex 80.8735 30.2253 3.5
    endloop
  endfacet
  facet normal -0.951057 -0.309017 0
    outer loop
      vertex 80.8735 30.2253 3.5
      vertex 81.2385 29.1019 1.75
      vertex 81.2385 29.1019 3.5
    endloop
  endfacet
  facet normal -0.994522 -0.104528 0
    outer loop
      vertex 80.771 31.2 1.75
      vertex 80.8735 30.2253 1.75
      vertex 80.771 31.2 3.5
    endloop
  endfacet
  facet normal -0.994522 -0.104528 0
    outer loop
      vertex 80.771 31.2 3.5
      vertex 80.8735 30.2253 1.75
      vertex 80.8735 30.2253 3.5
    endloop
  endfacet
  facet normal 0 -1 0
    outer loop
      vertex 9.21905 31.2 3.5
      vertex 9.21905 31.2 1.75
      vertex 80.771 31.2 1.75
    endloop
  endfacet
  facet normal 0 -1 0
    outer loop
      vertex 80.771 31.2 3.5
      vertex 9.21905 31.2 3.5
      vertex 80.771 31.2 1.75
    endloop
  endfacet
  facet normal 1 -6.12323e-17 0
    outer loop
      vertex 9.21905 30.8094 3.5
      vertex 9.21905 30.8094 1.75
      vertex 9.21905 31.2 1.75
    endloop
  endfacet
  facet normal 1 -6.12323e-17 0
    outer loop
      vertex 9.21905 31.2 3.5
      vertex 9.21905 30.8094 3.5
      vertex 9.21905 31.2 1.75
    endloop
  endfacet
  facet normal 0.978147 -0.207912 0
    outer loop
      vertex 8.97347 29.6541 3.5
      vertex 8.97347 29.6541 1.75
      vertex 9.21905 30.8094 1.75
    endloop
  endfacet
  facet normal 0.978147 -0.207912 0
    outer loop
      vertex 9.21905 30.8094 3.5
      vertex 8.97347 29.6541 3.5
      vertex 9.21905 30.8094 1.75
    endloop
  endfacet
  facet normal 0.913546 -0.406736 0
    outer loop
      vertex 8.49304 28.575 3.5
      vertex 8.49304 28.575 1.75
      vertex 8.97347 29.6541 1.75
    endloop
  endfacet
  facet normal 0.913546 -0.406736 0
    outer loop
      vertex 8.97347 29.6541 3.5
      vertex 8.49304 28.575 3.5
      vertex 8.97347 29.6541 1.75
    endloop
  endfacet
  facet normal 0.809017 -0.587786 0
    outer loop
      vertex 7.79877 27.6194 3.5
      vertex 7.79877 27.6194 1.75
      vertex 8.49304 28.575 1.75
    endloop
  endfacet
  facet normal 0.809017 -0.587786 0
    outer loop
      vertex 8.49304 28.575 3.5
      vertex 7.79877 27.6194 3.5
      vertex 8.49304 28.575 1.75
    endloop
  endfacet
  facet normal 0.669131 -0.743145 0
    outer loop
      vertex 6.92099 26.8291 3.5
      vertex 6.92099 26.8291 1.75
      vertex 7.79877 27.6194 1.75
    endloop
  endfacet
  facet normal 0.669131 -0.743145 0
    outer loop
      vertex 7.79877 27.6194 3.5
      vertex 6.92099 26.8291 3.5
      vertex 7.79877 27.6194 1.75
    endloop
  endfacet
  facet normal 0.5 -0.866025 0
    outer loop
      vertex 5.89806 26.2385 3.5
      vertex 5.89806 26.2385 1.75
      vertex 6.92099 26.8291 1.75
    endloop
  endfacet
  facet normal 0.5 -0.866025 0
    outer loop
      vertex 6.92099 26.8291 3.5
      vertex 5.89806 26.2385 3.5
      vertex 6.92099 26.8291 1.75
    endloop
  endfacet
  facet normal 0.309017 -0.951057 0
    outer loop
      vertex 4.7747 25.8735 3.5
      vertex 4.7747 25.8735 1.75
      vertex 5.89806 26.2385 1.75
    endloop
  endfacet
  facet normal 0.309017 -0.951057 0
    outer loop
      vertex 5.89806 26.2385 3.5
      vertex 4.7747 25.8735 3.5
      vertex 5.89806 26.2385 1.75
    endloop
  endfacet
  facet normal 0.104528 -0.994522 0
    outer loop
      vertex 3.8 25.771 3.5
      vertex 3.8 25.771 1.75
      vertex 4.7747 25.8735 1.75
    endloop
  endfacet
  facet normal 0.104528 -0.994522 0
    outer loop
      vertex 4.7747 25.8735 3.5
      vertex 3.8 25.771 3.5
      vertex 4.7747 25.8735 1.75
    endloop
  endfacet
  facet normal 0 0 1
    outer loop
      vertex 6.425 8.49304 1.75
      vertex 7.38059 7.79877 1.75
      vertex 3.8 25.771 1.75
    endloop
  endfacet
  facet normal 0 0 1
    outer loop
      vertex 3.8 25.771 1.75
      vertex 3.8 9.21905 1.75
      vertex 4.19059 9.21905 1.75
    endloop
  endfacet
  facet normal 0 0 1
    outer loop
      vertex 7.38059 7.79877 1.75
      vertex 8.17095 6.92099 1.75
      vertex 3.8 25.771 1.75
    endloop
  endfacet
  facet normal 0 0 1
    outer loop
      vertex 5.34595 8.97347 1.75
      vertex 3.8 25.771 1.75
      vertex 4.19059 9.21905 1.75
    endloop
  endfacet
  facet normal 0 0 1
    outer loop
      vertex 5.34595 8.97347 1.75
      vertex 6.425 8.49304 1.75
      vertex 3.8 25.771 1.75
    endloop
  endfacet
  facet normal 0 0 1
    outer loop
      vertex 8.17095 6.92099 1.75
      vertex 8.76153 5.89806 1.75
      vertex 3.8 25.771 1.75
    endloop
  endfacet
  facet normal 0 0 1
    outer loop
      vertex 8.76153 5.89806 1.75
      vertex 9.12653 4.7747 1.75
      vertex 3.8 25.771 1.75
    endloop
  endfacet
  facet normal 0 0 1
    outer loop
      vertex 9.12653 4.7747 1.75
      vertex 80.781 3.8 1.75
      vertex 3.8 25.771 1.75
    endloop
  endfacet
  facet normal 0 0 1
    outer loop
      vertex 80.781 4.19059 1.75
      vertex 81.0265 5.34595 1.75
      vertex 3.8 25.771 1.75
    endloop
  endfacet
  facet normal 0 0 1
    outer loop
      vertex 9.22898 3.8 1.75
      vertex 80.781 3.8 1.75
      vertex 9.12653 4.7747 1.75
    endloop
  endfacet
  facet normal 0 0 1
    outer loop
      vertex 80.781 3.8 1.75
      vertex 80.781 4.19059 1.75
      vertex 3.8 25.771 1.75
    endloop
  endfacet
  facet normal 0 0 1
    outer loop
      vertex 81.0265 5.34595 1.75
      vertex 81.507 6.425 1.75
      vertex 3.8 25.771 1.75
    endloop
  endfacet
  facet normal 0 0 1
    outer loop
      vertex 81.507 6.425 1.75
      vertex 82.2012 7.38059 1.75
      vertex 3.8 25.771 1.75
    endloop
  endfacet
  facet normal 0 0 1
    outer loop
      vertex 82.2012 7.38059 1.75
      vertex 83.079 8.17095 1.75
      vertex 3.8 25.771 1.75
    endloop
  endfacet
  facet normal 0 0 1
    outer loop
      vertex 83.079 8.17095 1.75
      vertex 84.1019 8.76153 1.75
      vertex 3.8 25.771 1.75
    endloop
  endfacet
  facet normal 0 0 1
    outer loop
      vertex 84.1019 8.76153 1.75
      vertex 85.2253 9.12653 1.75
      vertex 3.8 25.771 1.75
    endloop
  endfacet
  facet normal 0 0 1
    outer loop
      vertex 85.2253 9.12653 1.75
      vertex 86.2 9.22898 1.75
      vertex 3.8 25.771 1.75
    endloop
  endfacet
  facet normal 0 0 1
    outer loop
      vertex 85.8094 25.781 1.75
      vertex 84.6541 26.0265 1.75
      vertex 3.8 25.771 1.75
    endloop
  endfacet
  facet normal 0 0 1
    outer loop
      vertex 86.2 9.22898 1.75
      vertex 86.2 25.781 1.75
      vertex 3.8 25.771 1.75
    endloop
  endfacet
  facet normal 0 0 1
    outer loop
      vertex 86.2 25.781 1.75
      vertex 85.8094 25.781 1.75
      vertex 3.8 25.771 1.75
    endloop
  endfacet
  facet normal 0 0 1
    outer loop
      vertex 84.6541 26.0265 1.75
      vertex 83.575 26.507 1.75
      vertex 3.8 25.771 1.75
    endloop
  endfacet
  facet normal 0 0 1
    outer loop
      vertex 83.575 26.507 1.75
      vertex 82.6194 27.2012 1.75
      vertex 3.8 25.771 1.75
    endloop
  endfacet
  facet normal 0 0 1
    outer loop
      vertex 82.6194 27.2012 1.75
      vertex 81.8291 28.079 1.75
      vertex 3.8 25.771 1.75
    endloop
  endfacet
  facet normal 0 0 1
    outer loop
      vertex 81.8291 28.079 1.75
      vertex 81.2385 29.1019 1.75
      vertex 3.8 25.771 1.75
    endloop
  endfacet
  facet normal 0 0 1
    outer loop
      vertex 81.2385 29.1019 1.75
      vertex 80.8735 30.2253 1.75
      vertex 3.8 25.771 1.75
    endloop
  endfacet
  facet normal 0 0 1
    outer loop
      vertex 80.8735 30.2253 1.75
      vertex 80.771 31.2 1.75
      vertex 3.8 25.771 1.75
    endloop
  endfacet
  facet normal 0 0 1
    outer loop
      vertex 80.771 31.2 1.75
      vertex 9.21905 31.2 1.75
      vertex 9.21905 30.8094 1.75
    endloop
  endfacet
  facet normal 0 0 1
    outer loop
      vertex 80.771 31.2 1.75
      vertex 9.21905 30.8094 1.75
      vertex 8.97347 29.6541 1.75
    endloop
  endfacet
  facet normal 0 0 1
    outer loop
      vertex 80.771 31.2 1.75
      vertex 8.97347 29.6541 1.75
      vertex 8.49304 28.575 1.75
    endloop
  endfacet
  facet normal 0 0 1
    outer loop
      vertex 80.771 31.2 1.75
      vertex 8.49304 28.575 1.75
      vertex 7.79877 27.6194 1.75
    endloop
  endfacet
  facet normal 0 0 1
    outer loop
      vertex 80.771 31.2 1.75
      vertex 7.79877 27.6194 1.75
      vertex 6.92099 26.8291 1.75
    endloop
  endfacet
  facet normal 0 0 1
    outer loop
      vertex 80.771 31.2 1.75
      vertex 6.92099 26.8291 1.75
      vertex 5.89806 26.2385 1.75
    endloop
  endfacet
  facet normal 0 0 1
    outer loop
      vertex 80.771 31.2 1.75
      vertex 4.7747 25.8735 1.75
      vertex 3.8 25.771 1.75
    endloop
  endfacet
  facet normal 0 0 1
    outer loop
      vertex 80.771 31.2 1.75
      vertex 5.89806 26.2385 1.75
      vertex 4.7747 25.8735 1.75
    endloop
  endfacet
endsolid OpenSCAD_Model
